<svg id="Layer_1" data-name="Layer 1" xmlns="http://www.w3.org/2000/svg" viewBox="0 0 181.92 86.31"><defs><style>.cls-1{fill:#e95c0e;}.cls-2{fill:#050505;}.cls-3{fill:#070707;}.cls-4{fill:#040404;}.cls-5{fill:#020202;}</style></defs><path class="cls-1" d="M9.11,66.82a5.71,5.71,0,0,1,.16-1Q14.15,50.94,19,36.07q2.84-8.62,5.66-17.25h6c.2.73.37,1.47.6,2.18Q35.64,34.31,40,47.6c.12.37.2.75.36,1.34L33.6,47.86l-6-18.09c-3.3,10-6.53,19.75-9.84,29.74a11.11,11.11,0,0,0,1-.61c2.33-1.76,4.66-3.5,7-5.3a2.21,2.21,0,0,1,1.85-.48c5,.78,9.93,1.5,15,2.26.42,1.25.84,2.53,1.26,3.81q1.16,3.53,2.29,7a3.7,3.7,0,0,1,.1.58H39.79c-.57-1.77-1.15-3.54-1.71-5.32a1,1,0,0,0-.88-.67c-2.67-.38-5.35-.78-8-1.21a2.58,2.58,0,0,0-2.09.52c-3,2.27-6.07,4.46-9.11,6.68Z"/><path class="cls-2" d="M148.74,40.76v9.9h-4.21v-16c1.52,0,3-.06,4.52,0,.42,0,.85.53,1.19.9,2.45,2.74,4.88,5.5,7.31,8.25l.95,1V34.71h4.24v16c-1.53,0-3.07,0-4.61,0-.28,0-.57-.38-.8-.64-2.43-2.71-4.84-5.42-7.26-8.14L149,40.67Z"/><path class="cls-3" d="M109.61,46l4.06,4.89c-1.75,0-3.27,0-4.8,0a1.45,1.45,0,0,1-.85-.54c-1-1.11-1.94-2.23-2.83-3.4a1.86,1.86,0,0,0-1.81-.85,16.83,16.83,0,0,1-1.75,0v4.75h-4.2v-16a4.71,4.71,0,0,1,.67-.09c3.19,0,6.38,0,9.57,0,4.32-.06,6.58,3.82,5.47,7.57a4.67,4.67,0,0,1-2,2.71C110.64,45.35,110.17,45.63,109.61,46Zm-8.06-3.89c2,0,4,0,6,0a1.47,1.47,0,0,0,1.4-1.61,1.53,1.53,0,0,0-1.46-1.7c-.8,0-1.6,0-2.4,0h-3.53Z"/><path class="cls-4" d="M79.78,34.71c1.81,5.37,3.58,10.65,5.39,16H80.51c-.29-.9-.62-1.83-.88-2.77-.13-.45-.32-.68-.82-.67h-8.9l-1.13,3.45H64.13l5.39-16Zm-7.3,4.06c-.53,1.6-1,3.12-1.53,4.67h7.22l-1.56-4.67Z"/><path class="cls-4" d="M181.65,46.72v4H166.81V34.74h14.82v3.79H171.09v2.23h7.78v3.77h-7.76v2.19Z"/><path class="cls-5" d="M131.54,50.72h-14v-16h4.17V46.58h9.86Z"/><path class="cls-1" d="M53.42,34.72l1.71,5.22-8.94,6.55c-1.29-4-2.55-7.82-3.83-11.77Z"/><path class="cls-3" d="M92.58,50.7H88.43v-16h4.15Z"/><path class="cls-3" d="M139.42,34.75V50.68h-4.13V34.75Z"/><path class="cls-1" d="M.44,39.85,2,34.74H13.19L9.39,46.38Z"/></svg>