<svg id="Layer_1" data-name="Layer 1" xmlns="http://www.w3.org/2000/svg" viewBox="0 0 892 606.56"><path d="M734.36,377.59Q717.47,357,700.48,336.33q-23.29-28.41-46.54-56.85a8.33,8.33,0,0,0-7.21-3.41c-32.16.13-64.32.1-96.49.13-1.31,0-2.62.15-4.68.28-.77,16.85-.22,33.59-.32,50.32s0,33.6,0,50.75H471.05V58c1.39-.08,2.84-.25,4.29-.25,90.49,0,181-.15,271.46.14A79.84,79.84,0,0,1,784.32,67c22.65,12.09,33.92,31.73,34.6,56.84.79,29.14.57,58.33.08,87.48-.58,34.06-25.28,60.31-59.16,63.88-4.08.43-8.16.9-13.18,1.46,1.55,2,2.57,3.38,3.72,4.69,19.06,21.84,38.07,43.73,57.28,65.44,3.09,3.49,4.51,7,4.25,11.61-.36,6.27-.09,12.58-.09,19.18ZM545.58,199.74H551L658.5,200q25.5,0,51,.06c5,0,10,.09,15-.34,11.79-1,19.47-9.36,19.7-21.13.11-6,0-12,0-18,0-2,.07-4-.07-6-.84-11.42-9.8-19.53-21.87-19.54Q636,135,549.78,135c-1.28,0-2.57.21-4.2.35Z"/><path d="M390,302.29c5.26,6.55,10.13,12.46,14.8,18.53a8.82,8.82,0,0,1,2,4.87c.12,16.83,0,33.66,0,50.49a7.77,7.77,0,0,1-.4,1.49c-1.43.08-3,.23-4.64.23q-128,0-255.95,0c-17.25,0-33.34-4.13-47.15-15a58.9,58.9,0,0,1-22.33-38.34,124.33,124.33,0,0,1-1.39-18.89q-.15-89.48,0-179c0-14.81,3.39-28.74,12.28-40.91,10.26-14,24.43-21.72,41.16-25.27A141.65,141.65,0,0,1,158,57.64q121,.22,242,.09h6.6c.11,2.07.25,3.53.25,5,0,16.67-.05,33.33.07,50a9.35,9.35,0,0,1-2.7,7.14,109.41,109.41,0,0,0-9.59,10.85c-2.59,3.53-5.66,4.34-9.82,4.33q-68.74-.19-137.47-.09c-25.33,0-50.66-.05-76,0-10.94,0-19,6.62-21.08,16.94a35.88,35.88,0,0,0-.42,7c0,39.16.44,78.33-.22,117.48-.3,18.07,11,26.17,25.95,26.09,69.31-.35,138.63-.16,208-.16Z"/><path d="M706.65,547.84c-1.47.17-2.43.35-3.39.37-1.81,0-3.62,0-6.35,0-.06-18.9,0-37.42,0-56.25h13.57l20.93,39.58,1.53-.28c1-4,.37-8.25.48-12.36.13-4.5,0-9,0-13.5V492.08h9.8v55.8H729.49l-20.77-39.35-1.66.37c-.84,4.06-.3,8.27-.39,12.4-.1,4.5,0,9,0,13.5Z"/><path d="M807.6,510.23h-9.81c-1.19-1.54-2.3-3.19-3.62-4.66-6.92-7.7-19.47-6.62-25.52,2.14a22.77,22.77,0,0,0-.1,24.55c6.85,10.11,21.85,10,28.2-.29.89-1.46,1.28-3.23,2.21-5.65h-14.4v-7.2h23.61v28.71h-6.6c-.54-1.63-1.14-3.46-1.81-5.52a8.59,8.59,0,0,0-1.86,1.05c-8.69,8.68-25.73,7.5-35.09-2.71-11.47-12.52-9.7-34.37,3.81-44.48a26.26,26.26,0,0,1,40.29,11.4A27.44,27.44,0,0,1,807.6,510.23Z"/><path d="M199.47,547.9V491.66h5.91c6.33,0,12.66-.11,19,0,17,.38,21.42,17.12,16.47,27.52A16.56,16.56,0,0,1,230.49,528c-1.2.39-2.42.76-4.33,1.35l17.48,18.83c-4.2,0-7.5.26-10.74-.11a7.75,7.75,0,0,1-4.05-2.48c-4.64-4.77-9.14-9.68-13.69-14.55-1.52-1.63-3.06-3.15-6.14-1.33V547.9Zm9.95-28.27h5.11c3.49,0,7,.14,10.46-.1a8.8,8.8,0,0,0,7.9-8.77c.1-4.55-3-9-7.32-9.34-5.23-.43-10.51-.1-16.15-.1Z"/><path d="M500,491.81c9.16,0,18-.47,26.73.13,9.41.65,15.49,7.45,16.14,16.67.74,10.34-3.85,17-13.61,19.71a28.8,28.8,0,0,0-2.74,1.13l17.42,18.75c-4.27,0-7.58.25-10.81-.12a7.66,7.66,0,0,1-4-2.49c-4.65-4.77-9.15-9.67-13.69-14.54-1.4-1.51-2.79-2.95-5.84-1.52V548H500Zm9.82,27.62c5.71,0,11.16.33,16.55-.11,4-.33,6.94-4.75,6.79-9.14s-3.19-8.47-7.34-8.78c-5.22-.4-10.49-.1-16-.1Z"/><path d="M569.41,491.87h15c6.59,18.39,13.22,36.93,20,56H593.55l-4.47-11.49H564.76c-1.5,3.83-3,7.65-4.54,11.63H549.36C556.13,529.05,562.76,510.48,569.41,491.87Zm-1.54,34.84h18c-2.94-8.25-4.74-16.21-8.48-23.44l-1.41,0Z"/><path d="M190.88,548H180c-1.52-3.87-3-7.7-4.56-11.68H151.15c-1.49,3.85-3,7.68-4.51,11.64H135.79c6.77-19,13.37-37.51,20-56.09h15C177.36,510.22,184,528.77,190.88,548Zm-26.62-44.77-2,.06c-2.61,7.66-5.21,15.32-7.94,23.33h18C169.49,518.4,166.87,510.83,164.26,503.26Z"/><path d="M437.65,500.87v14.57h25.7v8.93H437.8v14.76h26.94c.14,3.12.26,5.67.39,8.67H427.81V492h36.83v8.85Z"/><path d="M651.43,528.92h9.69c-1.73,8.22-6,14.07-13.06,17.57-17.17,8.48-37.45-3.31-38.95-22.39-.91-11.57,1.94-21.51,11.83-28.48C636,485,657.29,493,661,510.79h-9.6c-.31-.44-.81-1.07-1.22-1.77-3.61-6.2-8.88-9.42-16.14-8.44-7.61,1-12.93,6-14.69,13.72-1.25,5.48-1.07,11,1.61,16.06,3,5.72,7.74,8.93,14.36,9.27s11.18-2.53,14.46-8Z"/><path d="M131.69,510.74a23.82,23.82,0,0,1-2.56.35c-2.31,0-4.62,0-6.95,0-.77-1.2-1.36-2.19-2-3.13-7.59-10.88-22.5-10-28.55,1.88a22,22,0,0,0-.13,20.2,16,16,0,0,0,14.13,9.57c6.71.47,11.53-2.41,14.85-8.09.5-.86,1-1.7,1.62-2.69h9.36c-.87,10.33-11,19.42-22.07,20.27-17.09,1.3-31.3-11.9-29.86-31.69a28.26,28.26,0,0,1,8.33-18.73c13.92-13.74,37.35-8.42,43.52,9.94A14.24,14.24,0,0,1,131.69,510.74Z"/><path d="M247.79,492h10.84c5.47,14.4,9.55,29.5,15.13,44l1.83,0q7.41-22,14.84-44h10.94c-6.5,19-12.83,37.48-19.17,56H267C260.64,529.51,254.3,511,247.79,492Z"/><path d="M334.52,491.93h9.37v46.75h26.65v9.21h-36Z"/><path d="M417.48,548H381.43V492h9.15v46.92h26.9Z"/><path d="M672.89,491.88h9.28v56a19,19,0,0,1-2.44.37c-2.14,0-4.29,0-6.84,0Z"/><path d="M310.4,547.78V492h9.2v55.78Z"/></svg>