<svg id="Layer_1" data-name="Layer 1" xmlns="http://www.w3.org/2000/svg" viewBox="0 0 554 371"><defs><style>.cls-1{fill:#bfc0c0;}.cls-2{fill:#434445;}.cls-3{fill:#818282;}.cls-4{fill:#0b0c0b;}.cls-5{fill:#fdf001;}.cls-6{fill:#080909;}.cls-7{fill:#080a09;}.cls-8{fill:#fbee02;}</style></defs><path class="cls-1" d="M518.05,270.15a8.08,8.08,0,0,1,0,.85q-256.24,0-512.5-.06c-1.46,0-3.39,1.15-4.5-.94l1.13-.11c2,0,4,.12,6,.12H512.06C514.06,270,516.05,270.1,518.05,270.15Z"/><path class="cls-2" d="M554,235a7.45,7.45,0,0,0-1,.09c0-1.67,0-3.33,0-5L553,96.15l1-.15Z"/><path class="cls-3" d="M2.13,269.89,1,270V133a.53.53,0,0,1,.8-.15c.06,2,.18,4,.18,6q0,62.81,0,125.6C2,266.24,2.08,268.07,2.13,269.89Z"/><path class="cls-4" d="M2.13,269.89c0-1.82-.14-3.65-.14-5.47q0-62.81,0-125.6c0-2-.12-4-.18-6L39.49,96H548c1.67,0,3.33.1,5,.15L553,230.09c0,1.67,0,3.33,0,5q-17.5,17.52-35,35.06c-2,0-4-.13-6-.13H8.12C6.13,270,4.13,269.93,2.13,269.89Zm4.81-5H515.07l33.47-33.14V101.27H41.37L6.94,135.72Z"/><path class="cls-5" d="M6.94,264.86V135.72l34.43-34.45H548.54V231.72l-33.47,33.14Zm441.93-83.34-49.12,52.92c.34-12.79.79-24.26.89-35.73a149.69,149.69,0,0,0-.82-19.42c-1.2-9.91-7.34-16.35-17.07-18.39-11.14-2.34-21.14,0-29.43,8.14a29.28,29.28,0,0,0-2.91,3.92l-1-.79v-9.89H322.78c-.32,24.57-.65,48.92-1,73.4h28.26c.22-3.8.56-7.4.62-11,.14-8.49,0-17,.29-25.47a34.07,34.07,0,0,1,1.94-10.2c1.73-4.76,6.15-6.85,11.3-6.11,4.23.6,6.43,3,7.31,8.2a21.05,21.05,0,0,1,.3,4c-.21,12.14-.48,24.29-.69,36.43,0,1.42.16,2.84.25,4.23h66.35l25-28.68,14,28.55h32.66l-25.73-49.5,48.66-51.92H494.14l-24.59,27.38c-4.78-9.49-9.31-18.49-13.73-27.25h-33C431.61,150.24,440.19,165.78,448.87,181.52ZM101.36,164.46l29.26-1.7c-.19-13.21-7.73-23.53-20-27.69-9.82-3.31-20-3.48-30.12-2.69-8.17.64-16,2.63-23,7.41-15,10.28-17,34.71,1.06,45.18a34.26,34.26,0,0,0,5.72,3c6.1,2.12,12.28,4,18.44,6,4.74,1.5,9.73,2.43,14.2,4.5,7.4,3.43,7.74,11.74,1,16.38-8.25,5.72-21.65,1.35-24.94-8.17-.74-2.14-1.21-4.37-1.86-6.79l-30.15,2c.47,3,.62,5.31,1.21,7.52C45.77,222.47,53,232.21,67,235.12a121.78,121.78,0,0,0,17.76,2.23c9.86.59,19.65-.27,28.74-4.52,12-5.58,18.78-15.07,20.17-28.22,1.27-12-4.66-23-16.41-28.25-8-3.58-16.6-5.65-25-8.24-4-1.22-8.07-1.93-12-3.18-2.79-.89-5.11-2.64-5.23-6-.1-2.74,2.57-6.06,5.74-6.82,7.83-1.87,17.43-.39,19.68,9.89A19.15,19.15,0,0,0,101.36,164.46Zm69.14,71.26c.09-1.15.2-1.95.21-2.75.11-10.32.1-20.64.34-31a52.71,52.71,0,0,1,1.24-10.86c1.41-5.93,6.05-9,11.84-8.3,5.09.57,7.72,3.83,7.84,10.34s-.11,13.31-.13,20c0,7.42,0,14.85,0,22.38H220c.11-1,.24-1.64.26-2.3.22-12,.57-23.94.59-35.92a116.5,116.5,0,0,0-1-18.88c-1.51-9.39-7.16-15.51-16.72-17.54-10.19-2.16-19.46-.23-27.64,6.36l-3.76,3v-36H143.43c-.48,33.93-1,67.6-1.43,101.46ZM271,237.79c5.07-.77,10.27-1,15.18-2.39,19.6-5.34,30.4-23.2,27.3-43.84-2.47-16.39-12.41-26.47-28.5-30a64.15,64.15,0,0,0-16.82-1.32c-22,1.1-35.87,14.48-38.61,32.28-2.6,16.93,3.29,31.26,18.29,39.76C254.92,236.31,262.76,237.49,271,237.79Z"/><path class="cls-6" d="M448.87,181.52c-8.68-15.74-17.26-31.28-26.07-47.23h33c4.42,8.76,8.95,17.76,13.73,27.25l24.59-27.38h38.21l-48.66,51.92,25.73,49.5H476.76l-14-28.55-25,28.68H371.39c-.09-1.39-.28-2.81-.25-4.23.21-12.14.48-24.29.69-36.43a21.05,21.05,0,0,0-.3-4c-.88-5.17-3.08-7.6-7.31-8.2-5.15-.74-9.57,1.35-11.3,6.11a34.07,34.07,0,0,0-1.94,10.2c-.32,8.48-.15,17-.29,25.47-.06,3.62-.4,7.22-.62,11H321.81c.32-24.48.65-48.83,1-73.4h26.68v9.89l1,.79a29.28,29.28,0,0,1,2.91-3.92c8.29-8.14,18.29-10.48,29.43-8.14,9.73,2,15.87,8.48,17.07,18.39a149.69,149.69,0,0,1,.82,19.42c-.1,11.47-.55,22.94-.89,35.73Z"/><path class="cls-7" d="M101.36,164.46a19.15,19.15,0,0,1-.89-2.42c-2.25-10.28-11.85-11.76-19.68-9.89-3.17.76-5.84,4.08-5.74,6.82.12,3.33,2.44,5.08,5.23,6,4,1.25,8.06,2,12,3.18,8.39,2.59,17,4.66,25,8.24C129,181.64,135,192.62,133.7,204.61c-1.39,13.15-8.22,22.64-20.17,28.22-9.09,4.25-18.88,5.11-28.74,4.52A121.78,121.78,0,0,1,67,235.12c-14-2.91-21.26-12.65-24.81-25.77-.59-2.21-.74-4.54-1.21-7.52l30.15-2c.65,2.42,1.12,4.65,1.86,6.79,3.29,9.52,16.69,13.89,24.94,8.17,6.7-4.64,6.36-12.95-1-16.38-4.47-2.07-9.46-3-14.2-4.5-6.16-1.95-12.34-3.86-18.44-6a34.26,34.26,0,0,1-5.72-3c-18-10.47-16.11-34.9-1.06-45.18,7-4.78,14.8-6.77,23-7.41,10.15-.79,20.3-.62,30.12,2.69,12.3,4.16,19.84,14.48,20,27.69Z"/><path class="cls-7" d="M170.5,235.72H142c.48-33.86.95-67.53,1.43-101.46h28.29v36l3.76-3c8.18-6.59,17.45-8.52,27.64-6.36,9.56,2,15.21,8.15,16.72,17.54a116.5,116.5,0,0,1,1,18.88c0,12-.37,24-.59,35.92,0,.66-.15,1.31-.26,2.3H191.83c0-7.53,0-15,0-22.38,0-6.66.25-13.32.13-20s-2.75-9.77-7.84-10.34c-5.79-.65-10.43,2.37-11.84,8.3A52.71,52.71,0,0,0,171.05,202c-.24,10.32-.23,20.64-.34,31C170.7,233.77,170.59,234.57,170.5,235.72Z"/><path class="cls-6" d="M271,237.79c-8.19-.3-16-1.48-23.16-5.52-15-8.5-20.89-22.83-18.29-39.76,2.74-17.8,16.66-31.18,38.61-32.28a64.15,64.15,0,0,1,16.82,1.32c16.09,3.54,26,13.62,28.5,30,3.1,20.64-7.7,38.5-27.3,43.84C281.22,236.74,276,237,271,237.79Zm-13.62-38.61a79.81,79.81,0,0,0,1.63,9.34c1.72,5.87,6.45,9.41,12,9.48a13,13,0,0,0,12.67-9.44,32.49,32.49,0,0,0,.51-18.18c-1.71-6.31-6.15-10.21-11.79-10.4a13.25,13.25,0,0,0-13.2,9.42C258.2,192.53,257.93,195.88,257.33,199.18Z"/><path class="cls-8" d="M257.33,199.18c.6-3.3.87-6.65,1.85-9.78a13.25,13.25,0,0,1,13.2-9.42c5.64.19,10.08,4.09,11.79,10.4a32.49,32.49,0,0,1-.51,18.18A13,13,0,0,1,271,218c-5.58-.07-10.31-3.61-12-9.48A79.81,79.81,0,0,1,257.33,199.18Z"/></svg>