<svg id="Layer_1" data-name="Layer 1" xmlns="http://www.w3.org/2000/svg" viewBox="0 0 393.64 393.64">
   
    <path
        d="M112,393.64c-11.49-3.91-18.49-13.33-26-21.88-6.11-7-5.49-18.32.33-25.59a60.42,60.42,0,0,1,4.42-4.78Q161.19,271,231.6,200.63a32.87,32.87,0,0,1,3.9-2.86c-1.75-1.84-2.76-3-3.82-4Q160.76,122.83,89.84,51.89c-8.43-8.44-11-18.84-4.7-27.28a107.81,107.81,0,0,1,20.73-20.7c7.24-5.56,17-3.92,24.16,2a41.69,41.69,0,0,1,3.12,2.83q85.73,85.7,171.43,171.42c8.56,8.56,10.42,18.54,5,27.77a31.63,31.63,0,0,1-5.06,6.21q-85.67,85.75-171.5,171.35c-3.47,3.46-8.36,5.49-12.59,8.19Z" />
</svg>