<svg id="Layer_1" data-name="Layer 1" xmlns="http://www.w3.org/2000/svg" viewBox="0 0 408.75 205.12"><path d="M0,101c2.07-6.5,7.06-7.76,13.14-7.76q178.82.09,357.64,0h6c-1.71-1.85-2.71-3-3.79-4.08q-35.38-35.46-70.79-70.89c-.76-.75-1.54-1.48-2.25-2.27-3.8-4.26-3.91-9.53-.31-13.26s8.9-3.64,13.22.12c.91.78,1.74,1.64,2.59,2.48l88.36,88.33c6.6,6.6,6.64,11.1.13,17.6L314.15,201c-4.8,4.79-9.93,5.41-14.08,1.74a8.85,8.85,0,0,1-1.47-11.87,36.47,36.47,0,0,1,4-4.46q35.25-35.3,70.54-70.57c1-1,2-2.06,3.72-3.91H371q-179,0-358,0c-5.77,0-10.43-1.38-12.94-7Z"/></svg>