<svg id="Layer_1" data-name="Layer 1" xmlns="http://www.w3.org/2000/svg" viewBox="0 0 32 32"><g id="telegram_social_media_network_chat" data-name="telegram social media network chat"><path d="M28.59,4.29a2.23,2.23,0,0,0-2.27-.36L3.41,13.1a1.83,1.83,0,0,0,0,3.38l1.48.61a1,1,0,1,0,.77-1.84h0l-1.1-.45,22.51-9a.24.24,0,0,1,.23,0,.23.23,0,0,1,.08.23L23.27,25.21a.42.42,0,0,1-.26.3.39.39,0,0,1-.39-.06l-8-6.24,7.83-7.91a1,1,0,0,0-1.22-1.56L9.75,16.54a1,1,0,1,0,.82,1.82l.18-.1,4.83-2.85L13.23,17.8a2,2,0,0,0-.09,2.83,2.26,2.26,0,0,0,.29.25l8,6.15a2.44,2.44,0,0,0,1.47.5,2.41,2.41,0,0,0,2.35-1.9L29.33,6.47A2.22,2.22,0,0,0,28.59,4.29Z"/></g></svg>