<svg id="Layer_1" data-name="Layer 1" xmlns="http://www.w3.org/2000/svg" viewBox="0 0 100 100"><path d="M8.78,91.59l1.85-6.76c1.25-4.59,2.52-9.17,3.74-13.77a2.16,2.16,0,0,0-.15-1.44A41.24,41.24,0,1,1,62.51,89.07a40.73,40.73,0,0,1-31.25-2.8,2.15,2.15,0,0,0-1.37-.14c-6.73,1.73-13.45,3.5-20.17,5.26C9.45,91.46,9.18,91.51,8.78,91.59Zm9.88-9.74c4.14-1.09,8.1-2.11,12.05-3.18a2.06,2.06,0,0,1,1.77.27A33.64,33.64,0,0,0,57,83.29a34.27,34.27,0,1,0-36.49-16.8,6.75,6.75,0,0,1,.7,6.07C20.24,75.55,19.54,78.65,18.66,81.85Z"/><path d="M37,30.7c1.75-.43,2.6.62,3.21,2.2.94,2.42,2,4.81,3,7.19A2.08,2.08,0,0,1,43,42.36c-.81,1.09-1.59,2.2-2.46,3.24a1.63,1.63,0,0,0-.16,2.12A28.28,28.28,0,0,0,54.55,59.9a1.62,1.62,0,0,0,2.07-.52c1-1.27,2.05-2.51,3.05-3.78.73-.93,1.15-1.16,2.21-.68q4.37,2,8.65,4.15a1.63,1.63,0,0,1,.66,1.26c-.06,4.39-1.36,6.49-6,8.46a12.13,12.13,0,0,1-8.15.09c-9.93-2.77-17.25-9-23.1-17.24a23.3,23.3,0,0,1-4.16-8.29,11.69,11.69,0,0,1,3.38-11.56A4.41,4.41,0,0,1,37,30.7Z"/></svg>