<svg id="Layer_1" data-name="Layer 1" xmlns="http://www.w3.org/2000/svg" viewBox="0 0 417.02 317.27">
    <path
        d="M214.75,317.27c-31.15,0-64.92-.77-103.25-2.35-19.77-.81-36.33-1.92-52.87-4.69-27.18-4.56-44.73-21.68-52.15-50.89-3.6-14.19-4.36-28.71-5.08-42.75C1.21,213.06,1,209.48.8,206c-.13-2.11-.33-4.27-.52-6.37-.09-1-.18-2-.27-3V121.86l.53-8.25c.36-5.67.74-11.53,1.06-17.28.73-13,1.9-28.21,6.59-43C17.48,23.91,37.82,7.58,68.64,4.74c17.17-1.58,34.66-2.27,51.58-2.93l4.4-.17C152.08.55,180.06,0,207.8,0c33.31,0,67.32.79,101.09,2.36l5.24.24c13.7.61,27.85,1.24,41.67,3.3,27.37,4.07,47.76,23.62,54.55,52.29C414.78,76.9,415.41,96,416,114.55l.12,3.47c1.14,33.66,1.88,78.1-2.6,123.32-1.89,19-7.2,34-16.24,45.88-11.12,14.58-26.22,23.08-43.67,24.59-23.51,2-47,3.12-69.06,4.05C262.17,316.81,239.33,317.27,214.75,317.27Zm2.5-285.92c-11.76.28-22.64.52-32.91.75-22.6.51-42.12.94-61.76,1.6-20.41.68-36.92,1.63-52,3-15.89,1.42-26.05,9.16-31.06,23.67-4.09,11.84-5.26,24-5.91,35.34A1045.46,1045.46,0,0,0,33.76,222a232.21,232.21,0,0,0,4.58,31.72c1.44,7.07,4.27,12.52,8.66,16.69,5.76,5.46,13.24,8.57,22.9,9.5,11.56,1.12,26.78,2.48,41.93,3.09,36.72,1.47,70.31,2.18,102.7,2.18,31.08,0,61.38-.69,90-2.05l1.64-.08c14.56-.68,29.6-1.4,44.23-3.12,12.59-1.49,21.34-8.43,26-20.65,4.89-12.76,6-26.29,6.77-39a1062,1062,0,0,0,.68-108.5q-.17-3.61-.28-7.23c-.5-13.47-1-27.39-4.91-40.44-2.18-7.27-5.1-14.69-11.71-19.71-6.88-5.24-15.44-7.9-26.94-8.37-32.71-1.35-65.5-2.56-94.43-3.62l-2.49-.09Z" />
    <path
        d="M172.46,223.86c-11.73,0-19.94-9.26-20-22.53q0-16.34,0-32.66V140.25q0-16.38,0-32.74c0-13.22,8.26-22.45,20-22.45a25.55,25.55,0,0,1,12.25,3.34Q205.87,99.94,227,111.52l.46.26q22,12,44,24.07c8.31,4.53,12.47,11,12.37,19.35-.1,8.11-4.29,14.44-12.48,18.83q-20.81,11.15-41.59,22.33-22.57,12.13-45.16,24.24A25.73,25.73,0,0,1,172.46,223.86Zm12.24-39.57,54.83-29.47-54.83-30Z" />
</svg>