<svg id="Layer_1" data-name="Layer 1" xmlns="http://www.w3.org/2000/svg" viewBox="0 0 512 512"><path d="M64.75,429.29c2.64-3.85,4.77-8.21,8-11.46q157.71-158,315.6-315.76c1-1,2-2.09,3.71-3.89H186c-9.82,0-16.22-4.6-18.08-12.91a16.27,16.27,0,0,1,14.82-19.73c1.24-.08,2.49,0,3.74,0H428.92c12.83,0,19.08,6.21,19.08,19V328.1c0,9.51-4.91,15.93-13.42,17.65a16.14,16.14,0,0,1-18.77-12.56,36.47,36.47,0,0,1-.48-6.7q0-99.92,0-199.83v-5.18c-1.76,1.66-2.83,2.63-3.85,3.64Q253.6,283,95.69,440.73c-3.25,3.24-7.63,5.37-11.48,8H77.47A20.12,20.12,0,0,1,64.75,436Z"/></svg>