<svg id="Layer_1" data-name="Layer 1" xmlns="http://www.w3.org/2000/svg" viewBox="0 0 408.88 260.5"><path d="M0,127.88c2-3.28,3.59-6.84,6-9.81C34.75,82,68.16,51,108.32,27.9,134.76,12.66,163,2.42,193.68.36,221.8-1.52,248.71,4,274.51,15c37,15.81,68.59,39.44,96.71,67.8,11.68,11.78,22.34,24.59,33.14,37.22,6.13,7.16,5.9,13.06.05,20.48-29,36.77-62.76,68.34-103.52,91.84-32,18.46-66.15,29.61-103.62,27.95-25.74-1.14-50-8.08-73.05-19.39C75.85,217.18,37.13,181.86,4,140c-1.7-2.14-2.68-4.84-4-7.28ZM30.48,130c1.5,1.79,2.52,3.17,3.7,4.38,12.44,12.75,24.33,26.1,37.47,38.08C97,195.55,125.18,214.39,158,225.54c19.63,6.68,39.77,9.51,60.47,7.24,26.53-2.91,50.61-12.75,73.29-26.34,29.48-17.67,54.68-40.41,77.54-65.88,3-3.33,5.84-6.79,9.05-10.54-7.85-8.48-15.21-16.88-23-24.82C329,78.47,299.82,55.55,265.13,40.5,247.84,33,229.84,28.07,210.86,27.17c-29-1.36-55.68,6.73-81.09,19.87-28.4,14.67-53,34.49-75.33,57.13C46.25,112.46,38.55,121.26,30.48,130Z"/><path d="M285.17,130.61c-.32,44.8-36.85,80.93-81.31,80.43-44.74-.51-80.55-36.71-80.23-81.1C124,85.12,160.46,49,204.94,49.51,249.66,50,285.49,86.23,285.17,130.61Zm-26.94-.19a53.9,53.9,0,0,0-53.59-54c-29.56-.32-54.2,24.22-54.12,53.94a53.86,53.86,0,0,0,107.71.09Z"/></svg>