<svg id="Layer_1" data-name="Layer 1" xmlns="http://www.w3.org/2000/svg" viewBox="0 0 175.47 308.45"><path d="M165.18,0c7.66,3.57,10.48,9.67,10.28,18-.31,12.94-.07,25.89-.08,38.84,0,11.06-6,17-17.17,17.09-8.83,0-17.66,0-26.49.2-6.86.14-8.06,1.3-8.24,8.19-.19,7.09,0,14.2,0,21.62,1.19,0,2.25.14,3.31.14,10,0,20.07,0,30.11,0,10.72,0,16.73,6.11,16.74,16.85q0,22.13,0,44.26c0,10.48-6.18,16.64-16.68,16.67-11,0-22.06,0-33.63,0v3.9c0,35.13.07,70.26-.1,105.38a23.39,23.39,0,0,1-2.47,10.3c-2.41,4.66-7,6.9-12.23,6.93-16.66.09-33.32.15-50,0-8-.08-13.88-6-14.53-14-.11-1.4-.13-2.81-.13-4.21V181.85c-9,0-17.62,0-26.24,0a31.21,31.21,0,0,1-5.38-.39A14.27,14.27,0,0,1,.14,167.66q-.27-24.69,0-49.38a14.22,14.22,0,0,1,14-14.1c8.52-.26,17.06-.1,25.59-.13h3.91c.07-1.26.16-2.32.17-3.39.1-9-.14-18.07.33-27.09,1-18.64,6.66-35.59,19.29-49.74C75.24,10.63,90.24,3.45,107.51.6c.76-.13,1.5-.4,2.25-.6Zm-147,163.74h3.59c10,0,20.08-.05,30.11,0,5.48.05,9.23,3.59,9.88,9A31.88,31.88,0,0,1,62,176.7V290.07h43.15v-4.14q0-55.11,0-110.22c0-8.28,3.7-12,11.94-12q17.48,0,34.93,0h3.25V122.16h-3.54c-11.75,0-23.49,0-35.23,0-6.77,0-11.12-3.59-11.22-10-.18-11.24-.16-22.49.38-33.71.45-9.41,4.82-16.78,14-20.23a36.5,36.5,0,0,1,10.83-2.2c7.82-.38,15.65-.23,23.48-.31,1.06,0,2.11-.12,3.07-.18V17.19c-15.08.33-29.94.17-44.73,1.16a51.35,51.35,0,0,0-30.8,13c-13,11.36-18.46,26.26-19.25,43C61.7,86.23,62,98.19,62,110.14c0,8.13-3.88,12-12,12-9.54,0-19.07,0-28.61,0-1.05,0-2.1.09-3.15.13Z"/></svg>