<svg id="Layer_1" data-name="Layer 1" xmlns="http://www.w3.org/2000/svg" viewBox="0 0 462.66 463.12"><path d="M306,463.12H157.57a49.9,49.9,0,0,0-5.32-.68c-15.38-.41-30.74-1-45.89-3.91C88.61,455.1,71.73,449.27,56.73,439,24,416.78,7.46,384.84,3.08,346.35c-2-17.78-2.57-35.79-2.81-53.71C-.17,259.76,0,226.87.09,194c.05-27.59-.21-55.21,3.7-82.62,2.53-17.73,7.84-34.66,17.23-50C43.22,25,76.88,7.19,118.17,2.55A410.14,410.14,0,0,1,163.3,0Q243.16-.06,323,.83A180.39,180.39,0,0,1,369,7c36.53,10,63.55,31.63,79.7,66.09,9.89,21.1,13.55,43.75,13.69,66.78q.57,89.37,0,178.74c-.07,16.72-1.66,33.42-6.23,49.63-12.9,45.68-42.11,75.07-88,87.75-16.25,4.49-32.9,5.68-49.63,6.25C314.39,462.34,310.22,462.8,306,463.12Zm-74.22-41.34c27.45-.4,54.91-.49,82.34-1.33a235.35,235.35,0,0,0,37.28-3.61c32.78-6.27,54.53-25.47,64-57.8,4.63-15.77,5.24-32.11,5.47-48.36.53-38.32.9-76.64.72-115-.12-26.07.33-52.21-3.34-78.13-1.95-13.7-6.14-26.7-14-38.25C391.07,60,372.14,49.91,349.59,45.78c-16.86-3.06-33.86-3.41-50.86-3.52q-66.75-.46-133.51,0c-17,.11-34.11.32-50.92,3.55-34.57,6.62-57.57,26-66.57,60.7-4.31,16.52-4.81,33.43-5,50.27-.44,44.8-.34,89.6-.25,134.41.05,19.74,0,39.56,3.79,59,6.54,33.64,25.68,56,59.31,65.2,14.38,3.92,29.14,4.73,43.88,5.08,27.44.7,54.89.91,82.35,1.31Z"/><path d="M351,231.27c-.46,66-52.74,119.13-119,119.26A118.62,118.62,0,0,1,112.64,232.61c0-.28,0-.56,0-.84-.22-66.3,52.83-119.24,119.1-119.53C297.25,112,350.73,165.59,351,231.27ZM231.73,308.45a77.06,77.06,0,1,0-77-77.12v.2a76.82,76.82,0,0,0,76.72,76.92Z"/><path d="M327.73,107.52a27.81,27.81,0,1,1,27.74,27.88h-.11a27.7,27.7,0,0,1-27.63-27.77Z"/></svg>