<svg id="Layer_1" data-name="Layer 1" xmlns="http://www.w3.org/2000/svg" viewBox="0 0 332 312.16"><path d="M81.65,226.94c-6.57-4.63-13.28-8.72-19.25-13.71-8.59-7.18-14.46-16.47-18.38-27-2-5.42-1.79-7.38,1.53-12.34a70.55,70.55,0,0,1-16.64-21.64A65.91,65.91,0,0,1,22,124.64c-.17-7,1.5-9.57,7.9-12.4-1.61-4.2-3.52-8.3-4.77-12.61C19.77,81.29,22,63.72,31.1,47c4.1-7.52,11.72-8.35,17.25-1.81a160.36,160.36,0,0,0,58.39,43.66,161.08,161.08,0,0,0,42.32,12.06,14.4,14.4,0,0,0,2.27,0c.59-5.35.66-10.75,1.83-15.9,6.54-28.68,25.08-46,53-52.88,23.24-5.76,44.16.28,62.09,16.16,3.05,2.69,6.67,2.69,10.2,2.91,8.33.51,15.83-2.29,23.09-6.12a14.35,14.35,0,0,1,6.82-1.86c5.33.22,8.83,4.51,8.76,10-.14,11.51-4.37,21.74-10.77,31-4.05,5.85-9.15,11-13.63,16.53a7.85,7.85,0,0,0-1.86,4.38c-.83,51.12-19.47,94.56-56.6,129.69-26.33,24.9-57.88,39.63-93.69,45-44.58,6.73-86.29-1.33-124.84-25-5.58-3.43-7.08-9.18-3.75-14.2,2.24-3.39,5.48-4.54,9.43-4.1a110.83,110.83,0,0,0,45.18-4.21C71.84,230.79,76.94,228.66,81.65,226.94ZM292.78,69.46c-1.08.06-1.75.1-2.43.12-5.94.19-11.89.73-17.8.45s-11.5-1.57-16-6.1c-24.4-24.67-62.93-15.22-78.53,9.76-6.95,11.13-8.33,23.13-5.59,35.8,1.47,6.86-3.11,12.27-10.12,12.1-2,0-4-.28-6-.46Q91.78,115.31,45.22,70.27c-.55-.53-1.16-1-1.8-1.54C41.78,73.31,41.31,82,42.23,87.49c2.29,13.75,9.22,24.56,20.53,32.63,4.88,3.48,6.43,7.26,4.94,11.83s-5.17,6.94-11.24,6.6c-4.18-.24-8.34-.94-13.63-1.56,3.16,5.44,5.55,10.58,8.85,15a47,47,0,0,0,28.11,18.16c3.7.85,6.9,2.28,8.44,6.08a9.51,9.51,0,0,1-6.45,13.13c-4,1.07-8.24,1.61-12.82,2.47.89,1.13,1.61,2.16,2.45,3.09,9.74,10.82,21.89,16.49,36.43,17.26,5.35.29,8.5,2.88,9.65,7.23,1.12,4.18-.38,7.83-4.55,11a129.11,129.11,0,0,1-44,21.51c-2.76.75-5.54,1.43-9,2.31,1.37.55,2.06.88,2.78,1.1a164.13,164.13,0,0,0,67.59,6.38c33.57-3.77,63.48-16.17,88.47-39,36.1-33,53.59-74.16,52.42-123.13-.1-4.28,1.24-7.58,4.75-10.17C283,84.19,288.31,77.43,292.78,69.46Z"/></svg>