<svg id="Layer_1" data-name="Layer 1" xmlns="http://www.w3.org/2000/svg" viewBox="0 0 512 512"><path d="M415,44H229.5a53,53,0,0,0-53,53V282.5a53,53,0,0,0,53,53H415a53,53,0,0,0,53-53V97A53,53,0,0,0,415,44Zm13.25,238.5A13.26,13.26,0,0,1,415,295.75H229.5a13.29,13.29,0,0,1-13.25-13.25V97A13.26,13.26,0,0,1,229.5,83.75H415A13.26,13.26,0,0,1,428.25,97ZM295.75,415a13.26,13.26,0,0,1-13.25,13.25H97A13.26,13.26,0,0,1,83.75,415V229.5A13.26,13.26,0,0,1,97,216.25h53V176.5H97a53,53,0,0,0-53,53V415a53,53,0,0,0,53,53H282.5a53,53,0,0,0,53-53V362H295.75Z"/></svg>