<svg id="Layer_1" data-name="Layer 1" xmlns="http://www.w3.org/2000/svg" viewBox="0 0 408.82 408.82"><defs><style>.cls-1{fill:#fff;}</style></defs><path class="cls-1" d="M230.75,408.82h-52.7c-5.78-2.07-8.67-6.32-10-12.21-3.1-13.45-6.64-26.79-9.77-40.23a6.18,6.18,0,0,0-4.4-4.91c-6.55-2.52-13-5.24-19.42-8.17a5.74,5.74,0,0,0-6.18.39c-9.83,6.06-19.77,12-29.69,17.88-7.46,4.44-12.4,3.82-18.55-2.31Q64.9,344.2,49.82,329.09c-6.34-6.35-6.94-11.16-2.35-18.84,6-10,12.09-20,17.94-30.12a6.5,6.5,0,0,0,.27-4.94c-2.67-6.92-5.76-13.68-8.48-20.59a5.57,5.57,0,0,0-4.37-3.92c-13.56-3.22-27-6.74-40.62-9.88-5.9-1.36-10.15-4.25-12.21-10V178.07c2.07-5.8,6.33-8.68,12.22-10,13.46-3.12,26.83-6.63,40.26-9.84a5.76,5.76,0,0,0,4.72-4.05c2.08-5.74,4.37-11.41,6.91-17a5.46,5.46,0,0,0-.35-5.83C56.91,120.11,50.17,108.8,43.42,97.5c-4.57-7.66-4-12.59,2.33-18.89q14.94-15,29.92-29.92c6.57-6.56,11.14-7.11,19.16-2.31,10.73,6.41,21.48,12.77,32.11,19.34,2.36,1.46,4.14,1.41,6.58.29,6.74-3.11,13.6-6,20.51-8.73a5.92,5.92,0,0,0,4.16-4.64c3.28-13.83,6.74-27.61,10.17-41.41,2-8,6-11.19,14.11-11.21q22,0,43.92,0c8,0,12.08,3.23,14,10.87,3.45,13.79,6.92,27.58,10.18,41.41a6.13,6.13,0,0,0,4.28,5c6.44,2.45,12.8,5.15,19.09,8a5.83,5.83,0,0,0,6.23-.35c10.41-6.41,20.94-12.64,31.45-18.89,7.39-4.39,12.11-3.8,18.19,2.25q15.27,15.22,30.49,30.49c6.21,6.22,6.78,10.94,2.25,18.52-6.21,10.39-12.36,20.81-18.73,31.09-1.46,2.37-1.37,4.18-.26,6.59q4.27,9.42,8,19.09a5.88,5.88,0,0,0,4.68,4.1c14,3.32,27.88,6.8,41.8,10.28,7.45,1.87,10.72,6,10.75,13.68q.06,22.15,0,44.31c0,7.93-3.23,12-10.94,13.94-13.92,3.47-27.84,6.94-41.79,10.27a5.54,5.54,0,0,0-4.41,3.88q-3.73,9.66-8,19.1a5.44,5.44,0,0,0,.27,5.83c6.33,10.3,12.51,20.7,18.7,31.09,4.41,7.39,3.85,12.14-2.2,18.22q-15.19,15.29-30.47,30.5c-6.14,6.13-11.11,6.73-18.58,2.28-10.28-6.14-20.48-12.38-30.84-18.37a6.47,6.47,0,0,0-5-.34q-10.74,4.22-21.23,9.06a7.08,7.08,0,0,0-3.52,4.05c-3.52,13.5-6.9,27-10,40.62C239.43,402.49,236.54,406.75,230.75,408.82Zm57.47-204.55c-.12-46.13-37.92-83.8-84-83.68s-83.81,37.93-83.68,84,37.92,83.8,84,83.68S288.35,250.31,288.22,204.27Z"/></svg>