<svg id="Layer_1" data-name="Layer 1" xmlns="http://www.w3.org/2000/svg" viewBox="0 0 209.65 365.81"><defs><style>.cls-1{fill:#fff;}</style></defs><path class="cls-1" d="M195.56,0c6.66,3.63,7.52,6.84,3.61,13.55L133.1,126.67c-.69,1.19-1.34,2.42-2.34,4.24H198a26.42,26.42,0,0,1,3.21.05c3.38.39,6.16,1.81,7.71,5s.36,6-1.63,8.57Q191,166,174.73,187.53q-65.58,86.54-131.18,173c-.58.76-1.1,1.56-1.75,2.26-2.86,3.05-7.52,3.86-10.75,1.93s-4.26-5.18-2.73-9.71q14.45-42.74,28.94-85.45,10.14-29.9,20.28-59.78c.41-1.22.72-2.48,1.21-4.18H8.87C1,205.64-2,201.08,1.36,194Q46.11,99.95,91,5.94c1.1-2.29,3.48-4,5.26-5.94Z"/></svg>