<svg id="Layer_1" data-name="Layer 1" xmlns="http://www.w3.org/2000/svg" viewBox="0 0 101.6 43.6">
    <defs>
        <style>
            .cls-1 {
                fill: #fff;
            }
        </style>
    </defs>
    <path class="cls-1"
        d="M0,34.6c0,5.3,4,9,9.6,9H45.3V36.1L43,33.2H13.2a2.84,2.84,0,0,1-2.9-2.9v-17a2.84,2.84,0,0,1,2.9-2.9h30L45.4,8V0H9.6C4,0,0,3.7,0,9Z" />
    <path class="cls-1"
        d="M90.1,43.6h10.6V40L91.8,29.8l1.2-.1c5.1-.4,8.6-4.1,8.6-9V9c0-4.5-3.3-9-9.6-9H54V43.6H64.3V29.8H78.7ZM64.3,10.5H88.5a2.84,2.84,0,0,1,2.9,2.9v3a2.84,2.84,0,0,1-2.9,2.9H64.3Z" />
</svg>