<svg id="Layer_1" data-name="Layer 1" xmlns="http://www.w3.org/2000/svg" viewBox="0 0 480 309"><defs><style>.cls-1{fill:#e1e1e1;}.cls-2{fill:#e6e6e6;}.cls-3{fill:#fd6101;}.cls-4{fill:#fd6a0f;}</style></defs><path class="cls-1" d="M339.39,201.69,335,202c-1-.66-1.85-1.71-2.9-1.93-25.73-5.35-51.43-10.84-77.23-15.84q-71.79-13.89-143.66-27.3c-30.52-5.75-61.08-11.26-91.6-17-5.61-1.05-11.12-2.63-16.68-4,11.43-3.32,22.82-6.75,34.29-9.93,31-8.6,62.11-16.8,93-25.7,35.07-10.09,70-20.84,105-31.16,37.24-11,74.47-22,111.82-32.6,40.37-11.45,80.88-22.4,121.31-33.66C470,2.41,471.46,1,473,0h7V132a43.78,43.78,0,0,0-4.5,1.77c-20.31,10.53-40.39,21.52-60.94,31.54-23.67,11.55-47.76,22.23-71.63,33.36C341.57,199.3,340.56,200.66,339.39,201.69Z"/><path class="cls-2" d="M0,136l2.94-.07c5.56,1.34,11.07,2.92,16.68,4,30.52,5.73,61.08,11.24,91.6,17q71.85,13.53,143.66,27.3c25.8,5,51.5,10.49,77.23,15.84,1.05.22,1.93,1.27,2.9,1.93-17.88,7.14-35.67,14.51-53.66,21.35-22.66,8.61-45.31,17.33-68.29,25-31.46,10.53-63.15,20.4-94.9,30C94.53,285.52,70.7,292,46.86,298.45c-14,3.79-28.25,6.89-42.4,10.23A27.39,27.39,0,0,1,0,309Z"/><path class="cls-3" d="M339.39,201.69c1.17-1,2.18-2.39,3.54-3,23.87-11.13,48-21.81,71.63-33.36,20.55-10,40.63-21,60.94-31.54A43.78,43.78,0,0,1,480,132v1a24.23,24.23,0,0,0-1,4.67q-.09,42.83,0,85.66a24.23,24.23,0,0,0,1,4.67v2c-17.85-3.82-35.67-7.81-53.57-11.43-27.83-5.62-55.72-11-83.59-16.47C341.71,201.88,340.54,201.82,339.39,201.69Z"/><path class="cls-4" d="M480,228a24.23,24.23,0,0,1-1-4.67q-.09-42.83,0-85.66a24.23,24.23,0,0,1,1-4.67Z"/></svg>