<svg id="Layer_1" data-name="Layer 1" xmlns="http://www.w3.org/2000/svg" viewBox="0 0 364.47 105.32">
    <defs>
        <style>
            .cls-1 {
                fill: #e6007e;
            }
        </style>
    </defs>
    <path class="cls-1"
        d="M171.7,32.94,151.31,76.85h63.83l.29.76c-1.56,1-3.1,2.09-4.7,3.07C198.79,88,186.9,95.31,174.86,102.42a15.61,15.61,0,0,1-7.44,2.23c-19.15.19-38.31.11-57.47.09-1.13,0-2.26-.22-3.79-.38a31,31,0,0,1,1.16-3.4c10-21.2,20.21-42.34,30.1-63.61,1.67-3.6,3.68-4.92,7.58-4.75,7,.3,14,.07,21,.09C167.62,32.7,169.25,32.83,171.7,32.94Z" />
    <path class="cls-1"
        d="M330.8,77.14c-4.38,9.09-8.28,17.32-12.37,25.45a4.74,4.74,0,0,1-3.17,1.83,33.32,33.32,0,0,1-5.48.13c-21.48.23-43,.36-64.45.77-3.74.07-5.71-1.26-7.34-4.46-3.84-7.54-8-14.92-12.45-23.16,2.28-.24,4-.57,5.67-.58,10.16-.05,20.32,0,30.49,0l63,0Z" />
    <path class="cls-1"
        d="M65.4,32.43c-1.42,3.2-2.64,6.06-4,8.87q-14.1,30-28.24,60c-.69,1.45-1.06,3.19-3.29,3.18-9.79,0-19.57,0-29.91,0a40.52,40.52,0,0,1,1.37-4.07Q11.43,79,21.57,57.57c3.34-7.06,6.74-14.09,10.05-21.16.94-2,1.75-3.75,4.55-3.77,8.81-.06,17.61-.36,26.42-.54A25.77,25.77,0,0,1,65.4,32.43Z" />
    <path class="cls-1"
        d="M110.76.31c-2,4.31-3.67,7.88-5.35,11.45-2,4.36-4.25,8.65-6.11,13.09-1.14,2.73-2.84,3.56-5.73,3.54-17.63-.14-35.25-.09-52.88-.1H21.32C25.51,19.11,29.38,10.5,33.44,2c.43-.91,2-1.32,3.09-1.85A3.89,3.89,0,0,1,38,.1q34.41,0,68.84,0C107.84.1,108.81.2,110.76.31Z" />
    <path class="cls-1"
        d="M229.81,66.44c4.29-9,8.23-17.23,12.11-25.48.88-1.87,2.42-2,4.16-2,4.33,0,8.66,0,13,0l46.49.07c1.65,0,3.3,0,5.41,0a16.14,16.14,0,0,1-.63,2.49C307,48.8,303.61,56,300.26,63.28c-.78,1.69-1.44,3.2-3.84,3.2C274.61,66.41,252.79,66.44,229.81,66.44Z" />
    <path class="cls-1"
        d="M221.26,2l19,27.65c-2.9,6.13-5.88,12.41-8.84,18.69q-4.87,10.38-9.73,20.77c-.78,1.67-1.34,3.36-3.74,3.35-9.8-.07-19.59,0-30.08,0Z" />
    <path class="cls-1"
        d="M141.57,28.32c4.25-8.91,8.11-16.81,11.78-24.8C154.4,1.22,156.08,1,158.19,1c8.49,0,17,0,25.47,0q13.74,0,27.47,0c1.6,0,3.19.13,5.36.23-4.08,8.67-7.92,16.74-11.67,24.86a3.57,3.57,0,0,1-3.94,2.29c-1.33-.08-2.66,0-4,0H141.57Z" />
    <path class="cls-1"
        d="M65.11,43.89l32,60.67c-2.72,0-4.82,0-6.92,0-9.49.05-19,0-28.47.22-3.08.07-4.86-.94-6.16-3.77a121,121,0,0,0-6.81-12.76,7.22,7.22,0,0,1-.36-7.46C53.79,68.86,59.2,56.91,65.11,43.89Z" />
    <path class="cls-1"
        d="M364.47.76q-20,13.13-40,26.2a8.19,8.19,0,0,1-4.19,1.26c-10.83.1-21.65.05-32.48,0a8.25,8.25,0,0,1-1.76-.51c2.19-4.77,4.3-9.42,6.46-14,1.4-3,3.11-5.92,4.22-9C298,1.2,299.9,0,303.69,0c20.15.2,40.31.09,60.46.09Z" />
    <path class="cls-1" d="M84,68.51,70.12,43.08c3.58-1.33,32.23-1.78,55.71-.9Z" />
    <path class="cls-1"
        d="M98.48,37.39c5.63-12.25,10.79-23.51,16.21-35.31,1.07,1.3,1.93,2.19,2.64,3.2q7.24,10.44,14.44,20.93c2.06,3,1.52,8-1.11,10.33a3.71,3.71,0,0,1-2.25.82C118.8,37.41,109.18,37.39,98.48,37.39Z" />
    <path class="cls-1"
        d="M315.72,40.15c6.37,9,12.23,17.08,17.8,25.34a5,5,0,0,1-4.16,7.78c-9.48.09-18.95,0-29.27,0C304.91,62.06,310.34,51.74,315.72,40.15Z" />
    <path class="cls-1"
        d="M245.34,32.91c1.7-1.8,2.69-3.38,4.12-4.27C263.27,20,277.16,11.55,291,3a5.28,5.28,0,0,1,1.32-.29c-4.67,9.94-9.18,19.66-13.85,29.31a4.13,4.13,0,0,1-2.9,2.1c-9.14.11-18.28,0-27.42-.09C247.59,34.07,247,33.61,245.34,32.91Z" />
</svg>