<svg id="Layer_1" data-name="Layer 1" xmlns="http://www.w3.org/2000/svg" viewBox="0 0 384 240.13"><path d="M0,18.82C2.23,9.75,7.33,3.3,16.76,1.15a45.84,45.84,0,0,1,9.65-1C38.9,0,51.4,0,63.89.08c14.75.05,22.92,5.75,28.59,19.7C98.92,35.6,105,51.59,112,67.13a219.42,219.42,0,0,0,27.16,45.16c.77,1,1.6,1.92,2.43,2.84a4.06,4.06,0,0,0,.91.58c0-2.89,0-5.68,0-8.47.17-12.74.08-25.49.62-38.22.51-12.18-1.69-23.2-9.8-32.83C129,31,126.71,24.68,127.8,17.7A21.11,21.11,0,0,1,148.67.16q32.24-.3,64.48,0c12.39.14,19.63,7.82,20.75,22,.64,8.07.53,16.22.52,24.33,0,16.74-.18,33.48-.28,50.22,0,.83.08,1.67.17,3.41,1.84-1.78,3.2-3,4.4-4.27,12.67-14,22.26-30.1,31-46.66,5.2-9.8,9.88-19.89,14.38-30,5.57-12.53,14.94-19,28.63-19Q332.08,0,351.39.1a43,43,0,0,1,7.07.6c13.23,2.28,21,13,17.48,25.94a145.49,145.49,0,0,1-11,27.69c-12.3,23.9-27,46.36-42.56,68.28-3.32,4.69-3.23,4.59.61,8.86,14.59,16.26,29.38,32.36,43.55,49,7.93,9.31,14.35,19.77,17.49,31.87v9c-5.82,14.3-12.49,18.74-28.24,18.75-12,0-24-.17-36,.05-10.08.19-18.72-3.1-25.69-10.2-8.23-8.37-15.77-17.43-24.18-25.61-8.84-8.6-18.29-16.59-27.62-24.66-2-1.74-4.69-2.72-7.37-4.22a22.88,22.88,0,0,0-.51,3c-.11,9.61-.95,19.28-.12,28.81,1.82,20.79-7.38,29.71-27.63,32-31.61,3.57-60-5.67-86.11-22.92-25-16.49-44.89-38.12-62.06-62.34C34.25,119.86,15.39,83,3.6,42.69,2.17,37.8,1.19,32.78,0,27.82Zm23.88,5.25c1,4.55,1.73,8.72,2.94,12.74C38.25,75,56.34,109.87,79.53,142.14c14.9,20.73,32,39.36,53.38,53.68,22,14.71,45.77,22.56,72.54,19.65,3.57-.39,5.1-1.35,5-5.41-.19-12.61-.27-25.26.37-37.85.75-14.9,8.6-21.48,23.49-20.8,6.84.31,12.85,3,18.54,6.47,11.27,6.91,20.93,15.82,30.05,25.27,8.68,9,17,18.29,25.52,27.46a16.3,16.3,0,0,0,13.28,5.56c11.24-.34,22.49-.1,33.74-.1H360a27.44,27.44,0,0,0-1.75-4.69c-3.43-5.49-6.42-11.41-10.63-16.26-14.22-16.43-28.79-32.57-43.44-48.62-11-12.1-12-22.15-2.82-35.7,3.72-5.48,7.57-10.87,11.2-16.4,12.87-19.63,25.81-39.24,35.95-60.49,1.43-3,2.46-6.18,3.9-9.84H348c-11.25,0-22.5.16-33.75-.08-4.39-.09-6.7,1.47-8.45,5.57C295.33,54,282.88,77.27,267.17,98.75c-7.27,9.93-15,19.42-25.87,25.69-16.58,9.53-30.14,2.43-30.59-16.71-.61-26.36-.39-52.74-.53-79.11,0-1.43,0-2.87,0-4.24H154.33c10.26,12.62,12.95,27,12.78,42.21-.17,16.62,0,33.25-.05,49.87,0,3.5-.19,7-.53,10.48-1.68,17.18-16.18,24.29-30.49,14.57a72.24,72.24,0,0,1-14.24-13.16c-15.83-18.8-27-40.47-36.89-62.77-5.21-11.73-9.57-23.84-14.25-35.8-2.23-5.69-2.17-5.71-8.39-5.71H23.88Z"/></svg>