<svg id="Layer_1" data-name="Layer 1" xmlns="http://www.w3.org/2000/svg" viewBox="0 0 1672.85 724.47"><path d="M411.6,576.7c-25.7,0-50.35.18-75-.31-2.31,0-5.16-4.1-6.56-6.89-1.07-2.13-.26-5.21-.26-7.87v-379c0-3.41.39-6.84.21-10.23-.35-6.42,2.54-8.55,8.86-8.49,47.88.44,95.82-.63,143.64,1.24,55,2.15,94.79,33.52,106.71,82.82,10.21,42.24,8.17,83.87-16.52,121.3-7.5,11.38-18.76,20.66-29.56,29.34-6.53,5.26-8.22,9-4.79,16.77,21.78,49.57,43.1,99.34,64.53,149.06,1.45,3.35,2.6,6.83,4.62,12.2H559.66c-10.64,0-21.31-.41-31.92.15-7.35.39-10.87-2.74-13.53-9.21-18.05-43.76-36.6-87.31-54.43-131.15-2.93-7.19-6.42-10.31-14.14-9.7a122.19,122.19,0,0,1-21.64,0c-9.45-1-11.58,3.24-11.51,11.83.32,41.34.18,82.7.11,124C412.59,567.08,412,571.5,411.6,576.7Zm34.64-343.6c-8,0-15.95.25-23.9-.08-6.38-.26-9.64,1.19-9.59,8.68.25,36,.05,71.93-.17,107.9,0,6.11,1.91,9.06,8.49,8.94,15.16-.27,30.39.62,45.5-.31,16.59-1,29.68-8.92,37.08-24.29,9.75-20.26,10.29-41.3,5.75-63.12-5.06-24.27-20.07-37.51-45-37.7C458.38,233.07,452.31,233.11,446.24,233.1Z"/><path d="M.06,369.81V183.26c0-22.56-1-19.08,18.64-19.06,36.09,0,72.25-1,108.23,1,73.79,4,132.2,59.18,137.48,133.2,3.52,49.27,4.73,99.47-.62,148.42-7.18,65.61-52.86,120.2-130.28,127.42-41.82,3.9-84.2,1.87-126.33,2.53-8.61.14-7.07-6.21-7.08-11.25Q0,512.58.06,459.7Zm82.49.85c0,36.41-.37,72.83.1,109.23.46,34.61-6.89,29.3,30.47,28.68,41.43-.7,66.92-20.93,68.88-59.29a1564.5,1564.5,0,0,0,.06-157.67c-1.92-38.69-27.27-58.35-66.33-58.5-7.22,0-14.48.47-21.65-.14-8.82-.76-11.84,2.15-11.73,11.38.47,42.1.21,84.21.2,126.35Z"/><path d="M1384.9,165.29c0,19.69-.37,38.66.18,57.6.23,8.11-2.5,10.41-10.38,10.35-42.57-.3-85.15-.14-127.72-.15h-14.6c-.27,5.84-.67,10.62-.68,15.4,0,24.66.29,49.32-.14,74-.15,8.45,2.61,11.15,11.11,11.05,34.59-.4,69.18-.16,103.77-.16h15.46c0,20.95.23,41.25-.44,61.51-.06,1.61-6.38,4.28-9.81,4.31-35.34.33-70.7.22-106.05.23h-13.94v32.63c0,22,.3,44-.15,66-.17,8.48,2.8,11.06,11.22,11,44.09-.34,88.19.11,132.27-.38,9.15-.1,12,2.65,11.69,11.51-.53,15.16-.6,30.37.06,45.52.41,9.31-3.14,11.25-11.9,11.21q-106.62-.52-213.25.06c-10.89.08-13.36-3.4-13.33-13.62.31-112.29.17-224.58.2-336.88,0-17.82.36-35.64.4-53.46,0-5.73,1.31-9.11,8.29-9.09q111.75.34,223.51.29C1381.72,164.19,1382.78,164.7,1384.9,165.29Z"/><path d="M785.22,164.14c28.7,0,56.73-.22,84.74.35,2.7,0,7,4.59,7.69,7.7,17.24,73.68,34.06,147.46,51,221.19,5,21.57,10.19,43.08,15.3,64.62l3.69.32c22.85-97.62,45.66-195.25,68.63-293.55H1108c-39.82,137.66-79.28,274.11-119.13,411.87-27,0-54.29.26-81.52-.43-2.57-.07-6.23-5.79-7.3-9.48-20.52-70.89-40.66-141.89-61-212.83q-26.31-91.68-52.82-183.29A60.88,60.88,0,0,1,785.22,164.14Z"/><path d="M1500.9,291.77h-76.48c-8.09-63.6,40.15-125.28,106-133.57,44.94-5.65,86.06,3.81,113.69,43.6C1662.2,227.86,1665,258.21,1662,289c-4.57,46.92-30.08,84-57.45,120.27-23,30.54-45.19,61.76-67.65,92.74-1.45,2-2.2,4.52-4.33,9h13.48c38,0,76,.33,114-.23,10.25-.15,13.11,3.2,12.69,13-.72,17-.2,34-.2,52.11-4.08.29-7.34.72-10.6.73-73.72,0-147.44-.14-221.15.24-9.59,0-11.46-3-12.34-12.16-2.91-29.89,5.48-54,25.71-77.35,34.43-39.81,65.9-82.25,97.15-124.66,18.29-24.83,33.58-52,31.54-84.58-.76-12.22-2.93-25.14-8-36.14-11.29-24.7-41.53-26.73-58.35-5.06C1507.36,248.89,1504,260.51,1500.9,291.77Z"/><path d="M738.52,576.7c-25.62,0-49.92.22-74.2-.34-2.49-.05-5.35-4.44-7.15-7.37-1-1.66-.23-4.43-.23-6.71V180c0-16,.06-15.93,16.15-15.93,18.61,0,37.24.2,55.85-.16,7.53-.15,10.69,1.84,10.68,10.16q-.36,196.8-.23,393.62C739.38,570.31,738.9,572.87,738.52,576.7Z"/></svg>