<svg xmlns="http://www.w3.org/2000/svg" viewBox="0 0 1673.89 636.55">
    <path fill="#28281e"
        d="M1673.89,0l-16.3,1.55c-36.68,2.86-73.35,5.93-110.06,8.36q-71.28,4.71-142.61,8.55c-32.42,1.78-64.86,3.17-97.31,4.43q-89.1,3.48-178.22,6.55c-43.94,1.45-87.89,2.71-131.85,3.44-109.73,1.81-219.46,4.3-329.2,4.66-222.66.72-445.33.22-668,.22H0V636.55c37.29-3,74.55-6.41,111.87-8.94,52.33-3.55,104.7-6.61,157.07-9.53,32.92-1.84,65.87-3.2,98.81-4.49q88.37-3.45,176.74-6.51c43.45-1.43,86.9-2.37,130.36-3.46,166.18-4.18,332.38-5.21,498.61-4.92q247.82.45,495.65.07h4.78Z" />
</svg>