<svg id="Layer_1" data-name="Layer 1" xmlns="http://www.w3.org/2000/svg" viewBox="0 0 183.46 316.46">
    <path
        d="M84.55,316.46c-8,0-15.25,0-22.06-.09C52.44,316.27,44.84,309,44,298.69c-.13-1.6-.15-3.19-.15-4.53V189.85H21.17a35.82,35.82,0,0,1-5.56-.44A18.22,18.22,0,0,1,.14,171.75C0,155.3,0,138.65.13,122.24a18.12,18.12,0,0,1,17.94-18.06c4.41-.13,8.78-.15,12.09-.15H43.81c0-2.71,0-5.43,0-8.15,0-6.06,0-12.33.31-18.54,1.13-21.08,7.77-38.16,20.3-52.19C76.34,11.86,91.53,3.84,110.85.65c.24,0,.61-.15,1-.26l.88-.26.5-.13h56.83l.8.37c8.61,4,12.84,11.32,12.59,21.73-.21,8.83-.16,17.84-.12,26.56v.49c0,3.9,0,7.8,0,11.69,0,13.29-7.7,21-21.13,21.09-8.69,0-17.65,0-26.44.2-1.07,0-3.58.07-3.91.4s-.39,2.83-.42,3.89c-.12,4.65-.08,9.24,0,14.09,0,0,0,2.52,0,3.57h29.43c12.78,0,20.73,8,20.74,20.85v44.26c0,12.71-7.92,20.63-20.66,20.67H131.33v23.76c0,26.68,0,54.27-.11,81.54a27.49,27.49,0,0,1-2.89,12.07c-3,5.78-8.73,9.1-15.78,9.14C104.2,316.42,94.34,316.46,84.55,316.46Zm20.59-26.39V179.71c0-10.47,5.52-16,15.94-16h34.18V130.16H120.49c-9.11,0-15.08-5.47-15.22-13.94-.21-13.29-.09-24.08.39-34,.56-11.69,6.3-19.92,16.59-23.78a40.47,40.47,0,0,1,12-2.46c5.56-.27,11.15-.27,16.56-.28H151l6,0V25.27l-9.31.13c-10.28.12-20.87.25-31.15.94a47.57,47.57,0,0,0-28.4,12c-11.25,9.83-17.11,23-17.92,40.21-.41,8.71-.35,17.65-.3,26.3,0,3.11,0,6.2,0,9.3,0,10.47-5.53,16-16,16H26.23l-.05,33.6H45.83c3.36,0,6.71,0,10.06,0,7.39.07,12.94,5.1,13.84,12.52a34.64,34.64,0,0,1,.26,4.45V290.07Z" />
</svg>