<svg id="Layer_1" data-name="Layer 1" xmlns="http://www.w3.org/2000/svg" viewBox="0 0 1678.99 746.01"><defs><style>.cls-1{fill:#e8e7e6;}.cls-2{fill:#e2e2e2;}.cls-3{fill:#f26322;}</style></defs><path class="cls-1" d="M0,419.45c5.54-.78,11.09-1.47,16.61-2.36,9.25-1.48,18.48-3.06,27.72-4.64,9.07-1.55,18.12-3.2,27.2-4.72,8.76-1.47,17.54-2.78,26.3-4.25q17.27-2.89,34.5-5.94c14.89-2.62,29.76-5.37,44.67-7.92,14.42-2.48,28.91-4.57,43.3-7.23,16-2.94,31.91-6.39,47.89-9.51,13.07-2.54,26.18-4.85,39.25-7.38q24.45-4.75,48.86-9.71,34.56-7.07,69.07-14.33c17.7-3.76,35.35-7.72,53-11.7q26-5.86,51.95-12,33.88-7.89,67.76-15.9c16.33-3.89,32.62-8,48.93-11.95,19.68-4.79,39.37-9.5,59-14.38,5.58-1.39,11-3.26,16.55-4.91-.15.6-.3,1.2-.47,1.84,10.62,1.77,21,3.42,31.36,5.26q21.6,3.84,43.14,7.9c11.62,2.19,23.21,4.57,34.82,6.81q11.13,2.14,22.31,4.12c10.67,1.91,21.36,3.7,32,5.66,9.22,1.69,18.38,3.65,27.6,5.3,12.13,2.18,24.32,4.05,36.44,6.29,20.68,3.81,41.31,7.87,62,11.71,15.19,2.81,30.43,5.38,45.62,8.15,14.06,2.56,28.12,5.15,42.14,7.9s28,5.7,42,8.54q20.78,4.22,41.56,8.4l42.51,8.64c15.13,3.09,30.26,6.24,45.4,9.29,17.24,3.48,34.49,6.88,51.74,10.33,16.11,3.22,32.23,6.39,48.32,9.72,7.07,1.47,14.07,3.3,21.09,5-8,3.49-16,7-24,10.44q-14.84,6.3-29.75,12.4c-5.81,2.37-11.73,4.48-17.57,6.77-12.46,4.88-24.89,9.83-37.36,14.68-11.55,4.49-23.09,9-34.7,13.31-26.93,10-53.87,20.05-80.88,29.87-10.85,3.95-21.92,7.29-32.85,11-13.12,4.48-26.14,9.28-39.31,13.59q-39.08,12.78-78.28,25.13c-13.36,4.23-26.8,8.23-40.26,12.12-23.26,6.74-46.52,13.48-69.86,19.91-20.79,5.74-41.7,11-62.55,16.57-10.35,2.74-20.67,5.57-31,8.28-13,3.41-26.11,6.82-39.2,10.07-20.92,5.2-41.81,10.51-62.81,15.3-19.24,4.39-38.64,8-57.92,12.23-25.39,5.51-50.73,11.27-76.11,16.81-18.47,4-37,8-55.49,11.77-19.65,4-39.38,7.58-59.08,11.3-14.05,2.66-28.09,5.33-42.17,7.82-8.91,1.58-17.9,2.69-26.8,4.26-14.08,2.48-28.11,5.25-42.19,7.73-8.9,1.57-17.87,2.81-26.8,4.22-4.06.64-8.1,1.37-12.16,2-6.66,1-13.35,1.9-20,3-11.51,1.9-23,4.06-34.5,5.87-11.86,1.86-23.78,3.38-35.65,5.15-8.13,1.21-16.22,2.68-24.35,3.85-10.25,1.47-20.56,2.65-30.81,4.16-10.08,1.49-20.1,3.32-30.18,4.83-7.81,1.17-15.67,2-23.48,3.14-3.57.51-7.08,1.47-10.65,2-11.88,1.72-23.78,3.28-35.66,5-10.74,1.56-21.44,3.34-32.18,4.85-8.31,1.17-16.67,2-25,3.14-3.56.48-7.08,1.3-10.62,2Z"/><path class="cls-2" d="M1392.18,401.48c-7-1.66-14-3.49-21.09-5-16.09-3.33-32.21-6.5-48.32-9.72-17.25-3.45-34.5-6.85-51.74-10.33-15.14-3.05-30.27-6.2-45.4-9.29l-42.51-8.64q-20.77-4.21-41.56-8.4c-14-2.84-28-5.8-42-8.54s-28.08-5.34-42.14-7.9c-15.19-2.77-30.43-5.34-45.62-8.15-20.67-3.84-41.3-7.9-62-11.71-12.12-2.24-24.31-4.11-36.44-6.29-9.22-1.65-18.38-3.61-27.6-5.3-10.66-2-21.35-3.75-32-5.66q-11.18-2-22.31-4.12c-11.61-2.24-23.2-4.62-34.82-6.81q-21.54-4.07-43.14-7.9c-10.36-1.84-20.74-3.49-31.36-5.26.17-.64.32-1.24.47-1.84q32.49-8.55,65-17.12c9.72-2.59,19.37-5.38,29.08-8,28.79-7.74,57.63-15.3,86.38-23.18q39.09-10.73,78-22c19-5.48,38-11.25,56.92-16.91,25-7.45,49.9-15,74.9-22.36,22.46-6.6,45-12.82,67.48-19.44,19.77-5.82,39.41-12.09,59.17-17.94,26.24-7.77,52.56-15.28,78.81-23,12.19-3.59,24.27-7.51,36.46-11.1,14.7-4.34,29.46-8.49,44.2-12.7q22.57-6.47,45.16-12.9c15.06-4.32,30.09-8.71,45.16-13,14-3.95,27.94-7.75,41.91-11.65,20.47-5.71,40.91-11.57,61.42-17.14C1613.78,16.51,1635,11,1656.17,5.43c6.37-1.68,12.74-3.38,19.12-5A31.34,31.34,0,0,1,1679,0V262.63a34.35,34.35,0,0,0-4,1.54c-29.5,15.69-58.81,31.77-88.52,47.06-54.53,28.07-110.49,53.16-166.38,78.36-8.28,3.74-16.53,7.58-24.89,11.41.57.61.9,1,1.24,1.32Z"/><path class="cls-3" d="M1396.4,402.32c-.34-.35-.67-.71-1.24-1.32,8.36-3.83,16.61-7.67,24.89-11.41,55.89-25.2,111.85-50.29,166.38-78.36,29.71-15.29,59-31.37,88.52-47.06a34.35,34.35,0,0,1,4-1.54V458.31c-18.62-3.83-36.79-7.63-55-11.3q-46.35-9.36-92.75-18.55-52-10.27-104-20.34C1416.94,406.12,1406.66,404.25,1396.4,402.32Z"/></svg>