<svg id="Layer_1" data-name="Layer 1" xmlns="http://www.w3.org/2000/svg" viewBox="0 0 263.79 360.11">
    <path
        d="M132.08,0A132.79,132.79,0,0,1,261.51,105.84c5.36,25.95.84,50.37-9.19,74.35C239.52,210.78,222.9,239.24,205,267q-29.06,45-62.26,86.92c-6.45,8.2-14.91,8.28-21.27.15-32.18-41.21-62.33-83.79-88-129.43A369.29,369.29,0,0,1,6.35,165.69c-9.54-27.28-8-54.3,2.5-80.67C26.5,40.87,59.09,13.65,105.37,2.85a81.83,81.83,0,0,1,10.32-1.66C121.14.66,126.61.38,132.08,0Zm.21,168c25.94-.14,47.72-22.09,47.49-47.86-.24-26.21-21.77-47.75-47.67-47.68-26.27.06-47.89,21.68-47.86,47.85S106.17,168.08,132.29,168Z" fill="#b7bdbe"/>
</svg>