<svg id="Odnoklassniki" xmlns="http://www.w3.org/2000/svg" viewBox="0 0 19.45 30"><path id="K" d="M16,15c-.86,0-2.6,1.73-6.06,1.73S4.69,15,3.82,15a1.73,1.73,0,0,0-1.73,1.73A1.65,1.65,0,0,0,3,18.24c1,.6,4.34,2,4.34,2L3.6,24.91A3,3,0,0,0,3,26.27,1.74,1.74,0,0,0,4.69,28,1.59,1.59,0,0,0,6,27.43s3.91-4.64,3.92-4.63,3.91,4.63,3.91,4.63a1.59,1.59,0,0,0,1.29.57,1.74,1.74,0,0,0,1.73-1.73,3,3,0,0,0-.65-1.36L12.49,20.2s3.3-1.36,4.33-2a1.64,1.64,0,0,0,.87-1.51A1.74,1.74,0,0,0,16,15Z"/><path id="O" d="M9.89,2A6.07,6.07,0,1,0,16,8.07,6.07,6.07,0,0,0,9.89,2Zm0,9.1a3,3,0,1,1,3-3A3,3,0,0,1,9.89,11.1Z"/></svg>