<svg id="Layer_1" data-name="Layer 1" xmlns="http://www.w3.org/2000/svg" viewBox="0 0 27.1 23.76"><g id="telegram_social_media_network_chat" data-name="telegram social media network chat"><path d="M26.31.52A2.23,2.23,0,0,0,24,.16L1.13,9.33a1.83,1.83,0,0,0,0,3.38l1.48.61a1,1,0,0,0,.9-1.78l-.13-.06h0L2.28,11,24.79,2A.24.24,0,0,1,25,2a.23.23,0,0,1,.08.23L21,21.44a.42.42,0,0,1-.26.3.39.39,0,0,1-.39-.06l-8-6.24,7.83-7.91A1,1,0,0,0,19,6L7.47,12.77a1,1,0,0,0,.71,1.87l.11-.05.18-.1,4.83-2.85L11,14a2,2,0,0,0-.09,2.83h0a1.74,1.74,0,0,0,.29.25l8,6.15a2.44,2.44,0,0,0,1.47.5A2.41,2.41,0,0,0,23,21.86L27.05,2.7A2.22,2.22,0,0,0,26.31.52Z"/></g></svg>