<svg id="Layer_1" data-name="Layer 1" xmlns="http://www.w3.org/2000/svg" viewBox="0 0 23 20"><defs><style>.cls-1{fill:#fdfdfd;}.cls-2{fill:#b9bfbf;}.cls-3{fill:#fafbfb;}.cls-4{fill:#bfc2c2;}.cls-5{fill:#f9fafb;}</style></defs><path class="cls-1" d="M23,8V20H5c1.7-2,.59-4.61,1.07-6.39L8,12c2.27-.44,4.74-.46,6.74-1.45,1.42-.7,2.82-.06,4.08-.83S21.31,7.83,23,8Z"/><path class="cls-2" d="M8,12,6.07,13.61C5.59,15.39,6.7,18,5,20H0V12L10.48.82l9,1.67A5.68,5.68,0,0,1,15,5a20.75,20.75,0,0,1-3,1c-1,.17-2-.07-2.93.06C7.11,6.29,6.7,7.93,8,10Z"/><path class="cls-3" d="M15,5a5.68,5.68,0,0,0,4.52-2.51l-9-1.67L0,12V0H23V6l-3-.92L15,8Z"/><path class="cls-4" d="M15,8l5-2.92L23,6V8c-1.69-.17-2.89.93-4.18,1.72s-2.66.13-4.08.83c-2,1-4.47,1-6.74,1.45V10l2.17-.67C11.76,8.82,13.16,7.61,15,8Z"/><path class="cls-5" d="M15,8c-1.84-.39-3.24.82-4.83,1.33L8,10C6.7,7.93,7.11,6.29,9.05,6,10,5.89,11,6.13,12,6a20.75,20.75,0,0,0,3-1Z"/></svg>