<svg id="Layer_1" data-name="Layer 1" xmlns="http://www.w3.org/2000/svg" viewBox="0 0 1208.52 576.89"><path d="M477.73,210.3c2.54.65,5,1.42,7.62,1.93,14.73,2.9,17.92,15.87,14.09,26.31-2.84,7.75-8.58,12.94-15.7,16.75s-15,5.54-22.8,7.15a104.62,104.62,0,0,1-30.83,1.73c-2.43-.23-4.84-.84-7.06-1.24-.16-.81-.34-1.16-.27-1.45.33-1.46.73-2.9,1.2-4.71,1.39-.51,3-1,4.45-1.64,5.92-2.63,12-5,17.66-8.09,2.82-1.52,5.15-4.17,7.29-6.66a6.14,6.14,0,0,0,.71-7.47,6.46,6.46,0,0,0-7-2.94,28.5,28.5,0,0,0-8.37,3c-4.62,2.54-7.87,6.65-10.7,11-6.43,9.89-10.31,20.85-13.07,32.24-.06.25.21.58.51,1.37,1.12-.55,2.25-1,3.29-1.63,11.27-6.51,23.21-8.13,35.65-4.37,16.14,4.87,25.19,16.05,27.91,32.53.16,1,.21,2,.3,3,.08.8.16,1.61.26,2.69,4.71-1.05,7.8-3,9.28-7.89,2.82-9.22,6.27-18.26,9.48-27.37.37-1.08.87-2.11,1.37-3.3h47.82a32,32,0,0,1-.75,3.49q-9.12,26.17-18.3,52.34c-.16.47-.38.92-.53,1.4-.64,2.09-1.45,4.33.52,6.05s4.11,1,6.17.3c4-1.43,7.16-4.19,9.95-7.34a68.66,68.66,0,0,0,12.72-21.36c3.75-9.8,7.27-19.69,10.88-29.54.63-1.71,1.23-3.42,1.9-5.31H621.3c-.44,1.52-.73,2.74-1.15,3.93q-8.4,24.06-16.8,48.12a64.79,64.79,0,0,0-2.33,8.16c-.68,3.29,1.12,5.32,4.42,4.74a26.07,26.07,0,0,0,6.45-2.49,19.13,19.13,0,0,0,3.27-2.3c1-.79,2-1.65,3.27-2.65l4.39,3.14c-1,1.73-1.74,3.33-2.67,4.85-5,8.13-10.52,15.86-18.06,21.85a15.27,15.27,0,0,1-6.13,3,52.2,52.2,0,0,1-22.8,0c-9.38-2.2-15.6-7.86-18.26-17.24-.14-.47-.29-.94-.47-1.4,0-.14-.2-.23-.53-.58-.71.62-1.45,1.21-2.15,1.87-12.18,11.6-26.54,18.09-43.49,18.66-10.71.36-19.56-5.25-23.49-15.22A34,34,0,0,1,482.54,333c.09-1.47.21-2.94.37-5.15-1.34,1.22-2.17,1.94-3,2.71-4.74,4.68-9.41,9.44-14.21,14.06-12.55,12.06-27.89,17.92-44.94,19.55-13.2,1.27-26.29.51-39-3.86-9.64-3.33-17.56-8.71-22.13-18.21a39.68,39.68,0,0,1-3.94-14.36c-.17-2.3-.27-4.59-.44-7.6-1.69,1.39-2.93,2.39-4.16,3.42-20.45,17.22-43.13,30.12-69.67,35.21a137,137,0,0,1-65.73-2.94,25.89,25.89,0,0,0-18.56.93c-20.77,8.59-42.52,10.75-64.72,7.52a68,68,0,0,1-14.78-4.35c-7.41-2.92-12.53-8.48-16-15.62v-10a27.85,27.85,0,0,1,19.45-14.83,71.8,71.8,0,0,1,42.7,2.84c1.19.46,2.4.87,4,1.44.75-2,1.4-3.71,2-5.41q7.44-21.46,14.86-42.94c7.26-21,21.81-34.12,43.09-40.09a130.55,130.55,0,0,1,52.47-3.59c1.94.25,3.86.69,5.89,1.07.12,1.17.26,2,.27,2.77s-.11,1.6-.19,2.63c-12.24,1.28-19.65,9.27-26.14,18.42-4.07,5.75-6.79,12.2-9.07,18.85-5.07,14.81-10.31,29.55-15.26,44.4-2.68,8-6.21,15.43-12.43,21.34-.16.15-.06.58-.08.87a4.36,4.36,0,0,0,.82.55,8.65,8.65,0,0,0,1.42.44c14.77,3.55,28,.3,38.76-10.25a124.47,124.47,0,0,0,15.92-19.17c12.23-18.06,17.81-38.58,20.27-60a39.68,39.68,0,0,0-.74-11.89c-1.31-6.74-5.13-12-11.52-14.79a42.23,42.23,0,0,0-12.35-3.69c-25.72-2.48-50.88.2-75.15,9.45a93.65,93.65,0,0,0-31.8,20.3c-4.47,4.31-8.51,8.94-10.64,14.92-2.34,6.56-1,11.55,4.34,16.06,3.54,3,4.14,5.55,1.88,9.56a19.21,19.21,0,0,1-11.06,8.85,31.46,31.46,0,0,1-13.33,1.09c-12.84-1.3-21.83-11.72-21-24.68a43.36,43.36,0,0,1,5.15-18.12,67.24,67.24,0,0,1,29-28.08,165.5,165.5,0,0,1,44.21-15.41,277.71,277.71,0,0,1,100.36-.78c12.4,2.12,24.24,6,35,12.7,9.77,6.11,17.07,14.26,20.73,25.39a73.37,73.37,0,0,1,2.72,34.05c-.71,4.87-2,9.65-3.12,14.82,3.47-.57,5.73-1.71,7-5.28,7.87-22,19.75-41.42,37-57.35,16.65-15.35,35.55-26.29,58.28-29.73.44-.06.83-.47,1.25-.72ZM436,299.77c-.48-2.42-.56-5-1.53-7.22-2-4.54-7.79-6.47-12.82-4.66a22.72,22.72,0,0,0-10.45,8.22c-8.52,11.47-14.88,24-17.84,38.08a31.83,31.83,0,0,0-.28,10.4c.8,6.21,5.1,8.78,11.12,7.24a24.38,24.38,0,0,0,13.19-8.54C427.57,330.57,434.54,316.42,436,299.77Zm-275.61,37a59.36,59.36,0,0,0-16.49-3.45c-6.32-.62-12.7-.59-18.64,2a24.13,24.13,0,0,0-7.33,4.91c-2.18,2.2-1.48,5.06,1.17,6.77a8.7,8.7,0,0,0,3.66,1.48c4.27.44,8.61,1.15,12.85.83C145.28,348.57,153.09,343.76,160.38,336.76Z"/><path d="M573.73,398.3c-1.74-.32-3.48-.72-5.24-.94-4.6-.57-9.22-1-13.64-3.44,1.79-2.95,3.41-5.64,5.13-8.49a59.72,59.72,0,0,0,23.57-5.9c9.47-4.59,17.26-11.26,24.21-19,8.7-9.73,15.83-20.58,22.33-31.87,2.32-4,4.73-8,7.35-11.89,5.47-8.07,13.21-12.39,22.85-13.65,7.52-1,15-.25,22.4.64l7,.8c1.71-3.9.34-7.19-1.06-10.29a18.24,18.24,0,0,0-11.84-10A43.86,43.86,0,0,0,655,283.15c-5.1,1-6.18,2.35-7,7.6-1.14,7.59-6.25,11.7-13.92,11.18-7.48-.5-12.62-7-10.87-14.26a23.91,23.91,0,0,1,14.31-16.9c5.42-2.38,11.2-3.15,17.07-3.36a69.65,69.65,0,0,1,27.47,4.28,39.75,39.75,0,0,1,15.62,10.19c7.28-20,13.68-39.65,20.75-59.35h48.58c-3,10.2-6.64,19.9-10,29.7s-6.74,19.7-9.44,30l2.66-2c11.42-8.6,24.19-13.22,38.58-12.87,5.91.15,11.68,1.23,16.72,4.43,6.58,4.18,10.75,10,10.2,18.19-.38,5.55-3.66,9.23-8.66,11.22-5.27,2.09-10.51,1.86-15.13-1.78-2.56-2-3.08-5-3-8.13.24-5.52-1.38-7.51-6.9-8.23a33.9,33.9,0,0,0-15.24,1.85,52.93,52.93,0,0,0-25.27,18,6.69,6.69,0,0,0-.7,1.29,3.27,3.27,0,0,0,0,.84c2.45-.34,4.86-.73,7.29-1,3.14-.36,6.3-.59,9.45-.91,10.18-1,18.34,2.89,24.47,10.76,2.93,3.77,5.11,8.16,7.41,12.38,1.43,2.62,2.34,5.53,3.7,8.19,3.47,6.79,7.13,7.54,13.71,2.77-.23-1-.46-2.11-.74-3.21-3.17-12.15-.14-23.07,6.64-33.2,6.37-9.53,15.14-16.27,25.22-21.47A85.06,85.06,0,0,1,875.57,270c12.25-.3,24.3.53,35.79,5.37A56,56,0,0,1,930,287.73c10.11,10.34,13.45,22.66,10.49,36.75-.13.62-.29,1.24-.45,1.91,5.61-.07,7.1-1.06,8.81-6q7.68-22.18,15.32-44.39c.59-1.7,1.22-3.39,1.85-5.17h48.78c-1.71,5.15-3.31,9.93-5.27,15.81,1.52-1.27,2.21-1.79,2.84-2.39,12.49-11.84,27.34-17.51,44.54-16.7,6.57.3,12.86,1.94,18.26,6a20.25,20.25,0,0,1,8,11.7c2.4,10.3-7.57,19.94-17.74,17.21-5.88-1.57-8.48-5.42-7.77-11.49.56-4.86-.81-7-5.48-7.61-14.58-1.83-33.45,4-43.68,20.6-.13.21,0,.59,0,1.24,3.45-.55,6.88-1,10.27-1.67,13.27-2.67,23.15,2.36,30.21,13.44a104.26,104.26,0,0,1,5.24,10.2c1.54,3.14,2.82,6.42,4.53,9.45,2,3.6,4.54,4.46,8.43,3.15a20.41,20.41,0,0,0,11.24-8.71c2.51-4.12,4.83-8.36,7-12.66,2.89-5.65,4.75-6.38,10.71-3.93,1.8.74,3.7,1.23,5.55,1.83v4c-.65,1.11-1.34,2.2-1.93,3.33-2.24,4.28-4.09,8.79-6.71,12.81-12.18,18.65-29.4,27.79-51.81,27.09-17.33-.54-28.62-10.32-30.7-27.38a29.47,29.47,0,0,0-7.26-16.18c-1.14-1.29-2.21-2.81-4.29-3.06q-7.77,22.44-15.32,44.28H935.09c.43-1.86.79-3.41,1.09-4.69l-16-4.06c-15,11.7-32.5,17.24-52,17.13s-37.59-4.38-52.14-18.19c-.83.49-1.29.7-1.68,1-12.17,9.24-26,12.27-41,10.88-13.15-1.22-22.63-9.12-25.84-21.46-.5-1.93-.76-3.92-1.14-5.88-1.06-5.47-2.91-10.62-6.52-15-1.3-1.55-2.91-2.85-4.77-4.64-5.42,15.49-10.56,30.21-15.68,44.87H670.69c5-15.08,10.3-29.62,15.28-45.06a21.9,21.9,0,0,0-10.11,7.79,122.06,122.06,0,0,0-8.32,13,162.83,162.83,0,0,1-22.42,32.36c-16,17.61-35.66,27.47-59.65,28.23a21.65,21.65,0,0,0-3.74.78Zm314.64-60.61c-7.62-6.46-10-14.16-7.15-23.21a27.17,27.17,0,0,1,17.45-18.36,65.61,65.61,0,0,0-1.84-7.95c-1.75-4.8-5.92-7-10.78-5.51a28.51,28.51,0,0,0-8,4,36.34,36.34,0,0,0-12.85,16.28,162.81,162.81,0,0,0-6.61,20.36,49.57,49.57,0,0,0,.07,22.79,23.92,23.92,0,0,0,1.89,5.65c2.07,4.19,4.91,5.61,9.41,4.4a19.7,19.7,0,0,0,6.66-3.22C881.76,349,885.39,343.85,888.37,337.69Z"/></svg>