<svg id="Layer_1" data-name="Layer 1" xmlns="http://www.w3.org/2000/svg" viewBox="0 0 1024 405.17"><defs><style>.cls-1{fill:#023f7c;}.cls-2{fill:#4b8fcc;}.cls-3{fill:#4c8fcc;}.cls-4{fill:#ebf0f4;}</style></defs><path class="cls-1" d="M182,47.66c2.27,5,1.29,10.15.56,15.13-2.84,19.45-18.42,28.81-35.19,28.68-15.3-.12-30.23,1.73-44.5,7.17-40.82,15.56-67.42,44.48-77.67,87C9.66,250,49.42,314.8,113.68,331.32a109.71,109.71,0,0,0,27.13,3.56,37.37,37.37,0,0,0,22.78-7.49,18.84,18.84,0,0,0,7.6-11.33A12.66,12.66,0,0,0,160,300.83a5.87,5.87,0,0,0-5.26,2.24c-3.92,4.53-8,8.92-11.76,13.6-8.76,11-13.76,12.3-26.7,7.13a39.07,39.07,0,0,1-15.56-11.26c-6-7-11.82-14-14.09-23.2a19.36,19.36,0,0,1-.72-4.38c0-3.79,1.64-4.89,5-3.26a44.47,44.47,0,0,1,5,3.19c1.11.73,2.14,1.6,3.29,2.26,1.53.89,3.19,2.53,5,1.14s2.21-3.45,2.05-5.82.43-4.85.5-7.29c.13-4.64.36-9.3.09-13.92-.33-5.47-1.22-10.91-1.73-16.37-.72-7.72,3.35-12,12.09-12.15,0,4,.17,8.11,0,12.16-.23,5.48-.67,10.94-1.14,16.4a28.35,28.35,0,0,1-1.06,5.87,39,39,0,0,0-1.81,15.73,10.19,10.19,0,0,1-3.78,9.28c-3.22,2.83-3.11,6.16.4,8.2a40,40,0,0,0,12.64,4.54c-1-3.08-2-5.46-2.6-7.93s-.74-4.77-1.09-7.16c3.28-1.22,5.18.46,6.73,2,3.78,3.7,7.92,3.68,12.44,2a16.38,16.38,0,0,1,3.32-1,5.8,5.8,0,0,0,5.26-5.2,6.38,6.38,0,0,1,5.85-5.8,2.88,2.88,0,0,0,1.76-.76c3.58-4.55,7.47-8.93,10.48-13.85,1.83-3,1.14-6.88-.13-10.22-1.82-4.8-3.67-9.61-5.95-14.2-5-10.12-14.1-14.58-24.52-17-7.09-1.66-14.2-1.23-21.28,0-5.08.9-9.62,6.51-10.68,13.16-.52,3.27-.73,6.59-1.17,9.88-.22,1.61-.63,3.2-.92,4.64-2.41,1-3.53-.42-4.23-1.9-1.34-2.83-2.88-5.7-3.48-8.72a113.07,113.07,0,0,1-2.07-16.28c-.17-3.49-1.36-5.67-4.55-6.88-1.7-.65-3.36-1.43-5.07-2-2.39-.87-4.54-1.47-6.44-3.87-1.45-1.84-5.32-1.77-8.16-2.56-3.08,6.1.51,10.77,1.79,16a5.36,5.36,0,0,1-5-1.74c-3.58-3.44-7.36-6.83-10.23-10.83-3.74-5.21-3-11.48-2-17.39a17.23,17.23,0,0,0-.64-8.23c-1.15-3.94-1.63-8.08-2.39-12.14a4.26,4.26,0,0,1,0-.5c-.2-4.79,3.54-7.68,5.4-11.49s2.8-7.46,6.76-10c8.93-5.71,17.43-12.09,26.18-18.1,3.58-2.46,5.4-5.32,3.25-9.64a1.56,1.56,0,0,1,0-1,8.39,8.39,0,0,1,.54-1.21c5.58.47,9.2-2.9,12.87-6.79,2.3-2.45,5.54-4.11,8.56-5.76,3.33-1.82,7-3,10.32-4.85a28.53,28.53,0,0,1,14.71-3.9c7.33.17,14.67.35,22,0a144.68,144.68,0,0,0,19.25-2.19,20.41,20.41,0,0,0,8.42-4.06c6.78-5.27,14.68-5.84,22.68-6.16,1.14,0,2.31.79,3.92,1.38-1.47,2.68-2.67,4.81-3.82,7-2.65,5-2.58,5.54,1,9.57-3,.55-5.78-.16-7.35-1.85-1.84-2-1.75-4.17.28-6.1s3.84-3.55,6.09-5.62c-1.13-.82-1.89-1.75-2.32-1.61-3,.94-6.19,1.61-8.7,3.31-4,2.68-3.74,7.9.07,14.75-1.9,1.24-3.6-.08-5.06-.72a44.66,44.66,0,0,0-17.47-3.45c-11.81-.19-23.63-.39-35.43,0a49.59,49.59,0,0,0-26.73,8.41,26.79,26.79,0,0,0-6.4,6.17c-2.27,3.08-4.76,5-8.75,4.56-1.2-.11-2.48.45-4.09.77,1.85,3.39,4.56,4.38,7.5,5a16.54,16.54,0,0,1,2.48.18c.84.32,2.21,1.13,2.14,1.55a3.67,3.67,0,0,1-1.63,2.66,31.69,31.69,0,0,1-5.79,1.35c-1,.19-1.95.28-3.26.46l-.36,3.64a9.56,9.56,0,0,1-3,1c-3.15,0-5.66.44-7.54,3.6-.71,1.19-3.6,1.06-5.47,1.6-2.83.82-5.87,1.28-8.41,2.66-3.26,1.77-2.92,4.22.38,5.84a14.18,14.18,0,0,0,15.77-2.47c1.32-1.28,1.36-1.76.43-5.67,4.23-3.5,8,2,12.2.74.5-1.19.7-3.06,1.65-3.58s2.89-.24,4.31.06a52.63,52.63,0,0,1,7.64,2.1c4.52,1.7,9.17,1.48,13.81,1.17,1.37-.09,2.7-.88,4.54-1.51l-3-4.31c3.65-3.7,10.16-4.27,13.11,0,5.67,8.22,13.58,7.33,21.48,6.59,7.64-.71,14.86.74,22,2.95,3.5,1.07,4.85,2.9,4.16,4.65s-2.52,2-6.17,1c-2.86-.72-5.79-1.12-8.85-1.69-3.3,6.88-8.49,9.59-15.61,8.42-6.06-1-7-5.77-7.56-10.66-3.37.33-4.44,1.35-3.32,3.69a29.37,29.37,0,0,0,4.6,6.38c1.49,1.69,2.89,3.19,1.33,6.2a16.42,16.42,0,0,1-3.23-2c-6.76-7.12-15.39-10.16-24.8-11.5-4.11-.58-8.22-1.19-12.35-1.63-6.16-.67-11.09,1.4-14.43,6.8-1,1.7-2.08,3.41-3.25,5-3,4.17-7.31,6.13-12.31,6.71-3.13.37-6.27.66-9.4,1-6.83.8-10.42,5.39-9.32,12.11a16.59,16.59,0,0,0,4.75,9.69,33,33,0,0,0,14.73,8c4.67,1.2,6.17-.56,5-5.29a53,53,0,0,1-1.23-5.83c-.61-4.67,1.18-10,6.41-11.64,6.94-2.16,14-4.15,21-5.78,6.28-1.46,12.73-2.22,19.07-3.49a37.2,37.2,0,0,1,14.34.07,30.88,30.88,0,0,0,18.36-2.08c6.37-2.77,13.07-1.79,19.7-1.44,2.82.15,5.63.46,8.45.47a5.66,5.66,0,0,0,5.71-3.32l-5.18-1.37c-3-.79-3.77-3.35-1.41-5.42a16.84,16.84,0,0,1,4.38-2.21c2-.88,4.14-1.64,3.84-4.48s-2.67-3.27-4.7-3.7-4.39,0-6.45-.5c-8.51-2.14-16.94-4.55-25.44-6.75-2.22-.58-4.56-.69-6.81-1.18a27.55,27.55,0,0,1-3.75-1.41,4.55,4.55,0,0,1,4.13-3.5,80.15,80.15,0,0,1,9.87-.93c6.51,0,13,0,19.24-2.08A68,68,0,0,0,198.62,129a13.25,13.25,0,0,0,7.15-9.75c1.19-7.82,7.1-10,13.85-9.83s13.69.69,20.47.16c11.94-.92,23.65-3.27,34.67-8.3,2-.93,4.25-1.5,6.57-2.31,1.75,4.85.27,8.6-2.09,11.78a71.58,71.58,0,0,1-8.8,9.47c-4.25,4-8.8,7.64-13.17,11.49-3.81,3.34-4.45,6.22-2.63,11.07a25.39,25.39,0,0,0,8,10.67c6.51,5.32,13.76,9.51,22,11.16,6,1.2,9.13,4.56,10.08,10.1,1.94,11.31,3.39,22.68,2.87,34.21-.77,17.4-3.87,34.38-10.79,50.37-20.13,46.55-54.69,76.37-104.17,88.44-5.78,1.41-11.74,2-17.61,3.08-.38.07-.68.57-1,.88H133c-.48-.34-.92-.89-1.45-1-4.71-.89-9.48-1.51-14.16-2.56-32.32-7.2-59.38-23.32-80.92-48.46A143.75,143.75,0,0,1,2.86,226.53,62.34,62.34,0,0,0,1,219.66v-32c1-4.09,2-8.16,2.84-12.27,9.84-47.1,36.39-81.61,78.87-103.79,21-10.94,43.58-15.65,67.17-15.88,5.33,0,10.66.08,16-.11,5.85-.22,9.65-3.07,11.13-8Zm38.85,127.58c-1-.55-1.89-1.19-2.89-1.64-3.32-1.49-6.57-.2-9.73.57a110.92,110.92,0,0,1-31.53,3.4c-3.15-.15-6.31-.06-9.47-.1a24.62,24.62,0,0,0-11.89,3.11,37.54,37.54,0,0,1-8.3,3.15c-8.52,2.09-17.12,3.83-25.64,5.94a25.46,25.46,0,0,0-7.24,3.08c-3.28,2-2.94,4.62.63,6.24a8.51,8.51,0,0,0,3.34.74c3,0,6.05.3,9-.27,16.89-3.3,33.72-6.89,50.6-10.22,12.32-2.44,24.23-6.79,36.87-7.78C217.63,181.22,220.29,179.66,220.85,175.24Zm-25.49,73.12c.38,1.92.56,3.82,2.83,4.34a3.7,3.7,0,0,0,4.49-2.24,24.52,24.52,0,0,0,1.54-4.17,23.78,23.78,0,0,1,6.4-10.5c3.89-3.92,3.36-9.13-1.66-11.25-7-2.95-12.63-7-16.3-13.82-1.76-3.27-4.59-3.89-6.58-2.39-1.76,1.33-1.57,3.52.65,6.62s4.8,6.37,7,9.68a20.3,20.3,0,0,1,2.89,18C196.07,244.54,195.77,246.52,195.36,248.36Zm-36.09-42.55a40.76,40.76,0,0,0-6.45.09c-1.26.2-3.07,1.09-3.37,2.06s.59,2.72,1.35,3.85a4.88,4.88,0,0,0,2.57,1.37c9.64,2.88,16.25,9.19,20.67,18.07a43.12,43.12,0,0,0,4.05,6.8c.64.84,2.44,1.62,3.27,1.3s1.62-2.07,1.59-3.16a17.4,17.4,0,0,0-1.25-5.77c-2-5-4.22-10-6.47-15C171.11,206.29,169.41,205.29,159.27,205.81ZM62,173.48c1-.59,1.68-.72,1.87-1.09,1.52-2.94,3.73-3.36,6.57-2a16.14,16.14,0,0,0,2.83.92c2.23.56,4.14-.37,4.52-2.54a8.43,8.43,0,0,0-.39-4.34c-1.87-4.74-12.4-9-17.19-7a7.24,7.24,0,0,0-1.36.61c-3.38,2.2-3.67,5.66-.39,8.05A5.56,5.56,0,0,1,61,171,8.89,8.89,0,0,0,62,173.48Zm-3.15,17.05a18.42,18.42,0,0,0-2-12.06,8.77,8.77,0,0,0-3.09-3.11c-2.62-1.66-4.68-.61-4.52,2.53A23.19,23.19,0,0,0,51.09,186C52.44,189,55.18,190.55,58.84,190.53Z"/><path class="cls-2" d="M1025,237.66c-9,0-18,.06-27,.12-6.56.05-11.48-3-15-8.23s-7.06-10.49-10.18-16a10.6,10.6,0,0,0-9.71-5.78c-9.47-.15-19-.05-29-.05v32.84c-7.52,0-14.49.36-21.41-.11-5.86-.4-9.61-5.67-9.67-12.56-.09-10-.08-20-.09-30,0-6.83,0-13.66,0-20.49,0-3.72-.89-6.91-4.31-8.91-1.77-1-2-2.47-1.12-4.48,1.19-.06,2.49-.19,3.79-.19q51.5,0,103,0c10,0,14.68,4.66,14.75,14.6q.06,8.75,0,17.5c-.06,7.12-4.21,11.41-11.35,11.75-1.66.08-3.32,0-5.42,0,6,5.88,9.4,13.15,14.14,19.43,2.13,2.84,4,6.44,8.61,5.53Zm-90.76-62.95v22.41H988c0-6,.05-11.59,0-17.23,0-4.18-1-5.12-5.45-5.16-6-.06-12,0-18,0Z"/><path class="cls-2" d="M794.79,208.08V240.6c-7.34,0-14.29.26-21.21-.09-4.79-.25-8.39-3.92-9.47-8.91a38.63,38.63,0,0,1-.84-7.88q-.12-23.22,0-46.45c0-3.55-.56-6.59-3.75-8.63-1.65-1.06-2.1-2.48-1.13-4.61,1.3-.06,2.75-.18,4.21-.19,34.8,0,69.59.1,104.39-.07,9.28-.05,15.06,4.8,15,15-.07,18.31,0,36.62,0,54.94v3.78H850.94V208.08Zm56.16-11c0-6.06,0-11.37,0-16.68,0-4.77-1-5.68-6-5.69q-22.2,0-44.42,0c-4.88,0-6.1,1.18-6.3,6.17-.15,3.82,0,7.65,0,11.47,0,5,0,5.06,4.91,5.07q23.46,0,46.91,0C847.5,197.43,849,197.23,851,197.09Z"/><path class="cls-3" d="M622.93,164H739.82a12.87,12.87,0,0,1-4.69,15.48c-5.91,4.28-12.07,8.24-18.27,12.1-17.33,10.8-34.75,21.46-52.11,32.22a28.37,28.37,0,0,0-3.08,2.56c3.38,1.43,37.25,1.92,48.75.85,1.56-6.3,1-7.93-3.66-11.4-.91-.68-1.24-2.14-2.25-4,8.35,0,15.66-.37,22.91.11,5.73.39,9.54,5.14,9.65,10.86.1,4.8,0,9.6,0,14.7H620.45c-1.31-7.5,1.66-12.88,7.53-16.74,7.49-4.93,15.14-9.61,22.74-14.37q22-13.77,43.91-27.51c1.47-.93,2.75-2.16,5-3.95h-50.4c-.89,4.48-.56,8.27,3.75,10.92.81.5.94,2.09,1.67,3.87-8.31,0-15.77.21-23.21-.08-4.41-.18-8.29-4.83-8.46-9.67C622.8,174.83,622.93,169.67,622.93,164Z"/><path class="cls-2" d="M596.8,238.62H493.42c-9.64,0-14.34-4.67-14.35-14.32q0-22.49,0-45c0-4.25,0-8.3-4.27-11-.84-.52-.76-2.52-1.25-4.41,9.34,0,18-.52,26.57.15,7.64.6,11.41,3.81,11.67,14.38.31,12.32.07,24.65.08,37,0,2.67-.11,5.34.05,8,.17,2.95,1.39,4.24,4.38,4.25,16.31.07,32.61,0,49.21,0,.13-1.59.33-2.86.33-4.14,0-15,0-30,0-45,0-4.05-.89-7.57-4.4-10-1.6-1.11-2.09-2.49-1.07-4.52H596.8Z"/><path class="cls-2" d="M435.64,227.72c.67-5.75.76-10.71-4.55-14.08-.82-.52-1-2.12-1.69-3.92,8.23,0,15.7-.32,23.13.12,5.13.3,8.57,5,9.34,11.34a31.37,31.37,0,0,1,.05,3.5V238.4c-1.49.09-2.61.21-3.73.21q-50.49,0-101,0c-6.84,0-10.52-2.24-12.47-7.77a16.29,16.29,0,0,1-.74-5.35q-.09-23,0-46c0-4.44-.53-8.54-4.75-11.33-.88-.58-.93-2.43-1.55-4.27,9.63,0,18.45-.41,27.21.13,7.57.46,11.16,5,11.18,12.58.05,14.5,0,29,0,43.5a34.06,34.06,0,0,0,0,3.5c.31,3,1.42,3.94,4.51,4.11.83,0,1.67,0,2.5,0h52.52Z"/><path class="cls-4" d="M357.33,307h-7.06v-4.31h7.06Z"/></svg>