<svg id="Layer_1" data-name="Layer 1" xmlns="http://www.w3.org/2000/svg" xmlns:xlink="http://www.w3.org/1999/xlink" viewBox="0 0 137 74"><defs><style>.cls-1{fill:url(#radial-gradient);}</style><radialGradient id="radial-gradient" cx="-228.82" cy="421.8" r="1" gradientTransform="matrix(28.98, 0, 0, -29.34, 6649.81, 12414.44)" gradientUnits="userSpaceOnUse"><stop offset="0" stop-color="#e2001a"/><stop offset="0.86" stop-color="#9d0d16"/></radialGradient></defs><path class="cls-1" d="M0,42.87H14.38L12.72,74l24.4-42.87-14.38,0L24.4,0Z"/><path d="M48.26,30.94a10.24,10.24,0,0,1-6.77-2.27,7.6,7.6,0,0,1-2.75-6.19h2.71a5.12,5.12,0,0,0,1.9,4.27,7.56,7.56,0,0,0,4.91,1.52A7,7,0,0,0,52.55,27a4.06,4.06,0,0,0,1.74-3.44,3.74,3.74,0,0,0-1.55-3.18,18.9,18.9,0,0,0-4.52-2.31,31,31,0,0,1-5.38-2.42,6.66,6.66,0,0,1-3.25-5.88A6.43,6.43,0,0,1,42,4.55a8.91,8.91,0,0,1,5.76-2,9,9,0,0,1,6,2.11,7.24,7.24,0,0,1,2.47,5.72H53.55a4.8,4.8,0,0,0-1.62-3.84,6.31,6.31,0,0,0-4.18-1.37,6.08,6.08,0,0,0-3.9,1.22,3.93,3.93,0,0,0-1.59,3.32A4,4,0,0,0,43.73,13a17.21,17.21,0,0,0,4.49,2.35,39.8,39.8,0,0,1,5.53,2.55,6.69,6.69,0,0,1,.62,11A9.67,9.67,0,0,1,48.26,30.94Z"/><path d="M75.32,3.06V5.64H67.78V30.47h-2.7V5.64H57.54V3.06H75.32Z"/><path d="M94.31,30.47,91.8,23.73H79l-2.51,6.74H73.59L84,3.06h2.78l10.4,27.41ZM79.93,21.15h10.9L85.38,6.46Z"/><path d="M117.94,30.47l-9.52-11h-6v11H99.68V3.06h9.67a7.66,7.66,0,0,1,5.72,2.43,8,8,0,0,1,2.4,5.83,8.39,8.39,0,0,1-1.66,5,8,8,0,0,1-4.29,2.94l9.82,11.27h-3.4ZM102.39,5.64V16.92h7a5.07,5.07,0,0,0,3.83-1.65,5.58,5.58,0,0,0,1.58-4,5.58,5.58,0,0,0-1.58-4,5.07,5.07,0,0,0-3.83-1.65Z"/><path d="M137,3.06V5.64h-7.54V30.47h-2.71V5.64h-7.54V3.06H137Z"/><path d="M46.63,70.6l-9-29.17h7.19l6,21.45,5.95-21.45H64L55,70.6Z"/><path d="M90.64,66.8a15.08,15.08,0,0,1-21.27,0A14.69,14.69,0,0,1,65,56a14.79,14.79,0,0,1,4.37-10.8A15,15,0,0,1,95,56,14.69,14.69,0,0,1,90.64,66.8ZM74.05,62.26a8.6,8.6,0,0,0,12,0A8.52,8.52,0,0,0,88.43,56,8.62,8.62,0,0,0,86,49.73a8.6,8.6,0,0,0-12,0A8.5,8.5,0,0,0,71.65,56,8.22,8.22,0,0,0,74.05,62.26Z"/><path d="M106.3,64.18h9.86V70.6H99.72V41.43h6.58Z"/><path d="M137,41.43v6.42h-6.57V70.6h-6.58V47.85h-6.57V41.43H137Z"/></svg>