<svg id="Layer_1" data-name="Layer 1" xmlns="http://www.w3.org/2000/svg" viewBox="0 0 512 387"><path d="M0,78c7.79-1.69,15.53-3.59,23.36-5,25.7-4.73,51.32-10,77.16-13.78C163.35,50,226.6,48.31,290,49.62a1077.16,1077.16,0,0,1,125.45,10,833.25,833.25,0,0,1,94.09,18.21A12.52,12.52,0,0,0,512,78V311c-8.11,1.79-16.17,3.81-24.33,5.33-23.23,4.34-46.42,9-69.78,12.53-20.57,3.11-41.3,5.25-62,7.12-45,4-90.17,4.72-135.35,3.6q-48-1.17-95.71-6.6C83.55,328.36,42.68,321.6,2.46,311.15A12.52,12.52,0,0,0,0,311ZM499,302.7V86.31Q255.76,34.69,13,86.37V302.69Q256,354.38,499,302.7Z"/><path d="M287.63,307V220.11H260.77v87.68H238c-.14-1.51-.37-2.93-.37-4.36q0-95.7,0-191.4A35.63,35.63,0,0,1,261.92,78.2c15.81-5.12,32.07-.29,41.59,12.43A35,35,0,0,1,310.79,112q.06,95.21,0,190.41c0,1.3-.18,2.59-.33,4.56Zm-.41-112.89a11.56,11.56,0,0,0,.46-2.12q0-38.46,0-76.92a11.45,11.45,0,0,0-.32-2.47,13.45,13.45,0,0,0-21.53-7.88c-4,3.13-5.15,7.44-5.13,12.38.08,24.14,0,48.28,0,72.42,0,1.45.2,2.9.32,4.59Z"/><path d="M156.71,194.58c6.8,2.7,12.32,6.15,15,12.52a25.87,25.87,0,0,1,2.33,9.58c.18,28.66.11,57.32.1,86,0,.8-.15,1.6-.28,2.95l-22.8-1.5v-6.57c0-24.5,0-49,0-73.49,0-8.88-5.13-15.46-12.93-16.44-3.58-.46-7.27-.08-11.66-.08v94.12L103.68,299V90.44c6.61-.8,13.16-1.65,19.72-2.36q12.91-1.41,25.85-2.64c12.82-1.2,24.53,8.43,24.76,21.24.38,22.15.29,44.32,0,66.48-.1,8.48-4.6,14.76-12.08,18.81C160.5,192.75,159,193.44,156.71,194.58Zm-30-13c3.55,0,6.85.23,10.1,0,7.75-.65,13.9-6.53,14.06-14.33.32-16.48.22-33,0-49.45-.06-5.23-3.78-9.82-8.63-10.17-5.17-.37-10.43.46-15.57.75Z"/><path d="M353.89,283.11,378.67,281v20.83l-47.4,4V83.16l22.62,1.42Z"/><path d="M46.23,289.83V120.77l-19.82,4V103.57L89.7,92v21.12l-20.13,3.33V294Z"/><path d="M439,272.78v20.86l-47.57,6.83v-212l22.74,2.66V276.4Z"/><path d="M194.54,82.28l22.49-1V307H194.54Z"/><path d="M451.93,97.17c7,1.36,13.31,2.66,19.67,3.8,2.2.39,3.25,1.38,3.08,3.65-.09,1.16,0,2.33,0,3.5V286.74l-22.74,4.53Z"/></svg>